<?xml version="1.0" encoding="utf-8"?>
<!-- Generator: Adobe Illustrator 19.0.0, SVG Export Plug-In . SVG Version: 6.00 Build 0)  -->
<svg version="1.1" id="Layer_1" xmlns="http://www.w3.org/2000/svg" xmlns:xlink="http://www.w3.org/1999/xlink" x="0px" y="0px"
	 viewBox="-664 730 171 41" style="enable-background:new -664 730 171 41;" xml:space="preserve">
<style type="text/css">
	.st0{fill:none;stroke:url(#XMLID_2_);stroke-width:3.8885;stroke-linecap:round;stroke-linejoin:round;stroke-miterlimit:10;}
	.st1{fill:none;stroke:url(#XMLID_3_);stroke-width:3.8885;stroke-linecap:round;stroke-linejoin:round;stroke-miterlimit:10;}
	.st2{fill:none;stroke:url(#XMLID_4_);stroke-width:3.8885;stroke-linecap:round;stroke-linejoin:round;stroke-miterlimit:10;}
	.st3{fill:none;stroke:url(#XMLID_5_);stroke-width:3.8885;stroke-linecap:round;stroke-linejoin:round;stroke-miterlimit:10;}
	.st4{fill:none;stroke:url(#XMLID_6_);stroke-width:3.8885;stroke-linecap:round;stroke-linejoin:round;stroke-miterlimit:10;}
	.st5{fill:none;stroke:url(#XMLID_7_);stroke-width:3.8885;stroke-linecap:round;stroke-linejoin:round;stroke-miterlimit:10;}
	.st6{fill:none;stroke:url(#XMLID_8_);stroke-width:3.8885;stroke-linecap:round;stroke-linejoin:round;stroke-miterlimit:10;}
	.st7{fill:none;stroke:url(#XMLID_9_);stroke-width:3.8885;stroke-linecap:round;stroke-linejoin:round;stroke-miterlimit:10;}
	.st8{fill:none;stroke:url(#XMLID_10_);stroke-width:3.8885;stroke-linecap:round;stroke-linejoin:round;stroke-miterlimit:10;}
	.st9{fill:none;stroke:url(#XMLID_11_);stroke-width:3.8885;stroke-linecap:round;stroke-linejoin:round;stroke-miterlimit:10;}
	.st10{fill:none;stroke:url(#XMLID_12_);stroke-width:3.8885;stroke-linecap:round;stroke-linejoin:round;stroke-miterlimit:10;}
	.st11{fill:none;stroke:url(#XMLID_13_);stroke-width:3.8885;stroke-linecap:round;stroke-linejoin:round;stroke-miterlimit:10;}
	.st12{fill:none;stroke:url(#XMLID_14_);stroke-width:3.8885;stroke-linecap:round;stroke-linejoin:round;stroke-miterlimit:10;}
	.st13{fill:none;stroke:url(#XMLID_15_);stroke-width:3.8885;stroke-linecap:round;stroke-linejoin:round;stroke-miterlimit:10;}
	.st14{fill:none;stroke:url(#XMLID_16_);stroke-width:3.8885;stroke-linecap:round;stroke-linejoin:round;stroke-miterlimit:10;}
	.st15{fill:none;stroke:url(#XMLID_17_);stroke-width:3.8885;stroke-linecap:round;stroke-linejoin:round;stroke-miterlimit:10;}
	.st16{fill:none;stroke:url(#XMLID_18_);stroke-width:3.8885;stroke-linecap:round;stroke-linejoin:round;stroke-miterlimit:10;}
	.st17{fill:none;stroke:url(#XMLID_19_);stroke-width:3.8885;stroke-linecap:round;stroke-linejoin:round;stroke-miterlimit:10;}
	.st18{fill:none;stroke:url(#XMLID_20_);stroke-width:3.8885;stroke-linecap:round;stroke-linejoin:round;stroke-miterlimit:10;}
	.st19{enable-background:new    ;}
	.st20{fill:#2189DC;}
</style>
<g id="icomoon-ignore">
</g>
<g>
	<g id="XMLID_423_">
		<g id="XMLID_424_">
			<g id="XMLID_449_">
				
					<linearGradient id="XMLID_2_" gradientUnits="userSpaceOnUse" x1="-661.95" y1="2202.624" x2="-661.95" y2="2188.3354" gradientTransform="matrix(1 0 0 1 0 -1431.2)">
					<stop  offset="0" style="stop-color:#C52762"/>
					<stop  offset="1" style="stop-color:#CB5933"/>
				</linearGradient>
				<line id="XMLID_452_" class="st0" x1="-662" y1="759.1" x2="-662" y2="769.5"/>
				
					<linearGradient id="XMLID_3_" gradientUnits="userSpaceOnUse" x1="-661.95" y1="2185.3052" x2="-661.95" y2="2174.4893" gradientTransform="matrix(1 0 0 1 0 -1431.2)">
					<stop  offset="0" style="stop-color:#DC932D"/>
					<stop  offset="1" style="stop-color:#EABD30"/>
				</linearGradient>
				<line id="XMLID_451_" class="st1" x1="-662" y1="745.2" x2="-662" y2="752.2"/>
				
					<linearGradient id="XMLID_4_" gradientUnits="userSpaceOnUse" x1="-661.95" y1="2171.4502" x2="-661.95" y2="2165.8308" gradientTransform="matrix(1 0 0 1 0 -1431.2)">
					<stop  offset="0" style="stop-color:#48549A"/>
					<stop  offset="1" style="stop-color:#539385"/>
				</linearGradient>
				<line id="XMLID_450_" class="st2" x1="-662" y1="736.6" x2="-662" y2="738.3"/>
			</g>
			<g id="XMLID_446_">
				
					<linearGradient id="XMLID_5_" gradientUnits="userSpaceOnUse" x1="-655.65" y1="2202.624" x2="-655.65" y2="2184.8804" gradientTransform="matrix(1 0 0 1 0 -1431.2)">
					<stop  offset="0" style="stop-color:#C52762"/>
					<stop  offset="1" style="stop-color:#CB5933"/>
				</linearGradient>
				<line id="XMLID_448_" class="st3" x1="-655.7" y1="755.6" x2="-655.7" y2="769.5"/>
				
					<linearGradient id="XMLID_6_" gradientUnits="userSpaceOnUse" x1="-655.65" y1="2181.8442" x2="-655.65" y2="2164.1008" gradientTransform="matrix(1 0 0 1 0 -1431.2)">
					<stop  offset="0" style="stop-color:#DC932D"/>
					<stop  offset="1" style="stop-color:#EABD30"/>
				</linearGradient>
				<line id="XMLID_447_" class="st4" x1="-655.7" y1="734.8" x2="-655.7" y2="748.7"/>
			</g>
			<g id="XMLID_441_">
				
					<linearGradient id="XMLID_7_" gradientUnits="userSpaceOnUse" x1="-649.35" y1="2202.6443" x2="-649.35" y2="2177.9558" gradientTransform="matrix(1 0 0 1 0 -1431.2)">
					<stop  offset="0" style="stop-color:#C52762"/>
					<stop  offset="1" style="stop-color:#CB5933"/>
				</linearGradient>
				<line id="XMLID_445_" class="st5" x1="-649.3" y1="748.7" x2="-649.3" y2="769.5"/>
				
					<linearGradient id="XMLID_8_" gradientUnits="userSpaceOnUse" x1="-649.35" y1="2174.9141" x2="-649.35" y2="2164.0979" gradientTransform="matrix(1 0 0 1 0 -1431.2)">
					<stop  offset="0" style="stop-color:#DC932D"/>
					<stop  offset="1" style="stop-color:#EABD30"/>
				</linearGradient>
				<line id="XMLID_444_" class="st6" x1="-649.3" y1="734.8" x2="-649.3" y2="741.8"/>
				
					<linearGradient id="XMLID_9_" gradientUnits="userSpaceOnUse" x1="-649.35" y1="2159.0999" x2="-649.35" y2="2159.0999" gradientTransform="matrix(1 0 0 1 0 -1431.2)">
					<stop  offset="0" style="stop-color:#48549A"/>
					<stop  offset="1" style="stop-color:#539385"/>
				</linearGradient>
				<path id="XMLID_443_" class="st7" d="M-649.3,727.9"/>
				
					<linearGradient id="XMLID_10_" gradientUnits="userSpaceOnUse" x1="-649.35" y1="2157.3999" x2="-649.35" y2="2157.3999" gradientTransform="matrix(1 0 0 1 0 -1431.2)">
					<stop  offset="0" style="stop-color:#48549A"/>
					<stop  offset="1" style="stop-color:#539385"/>
				</linearGradient>
				<path id="XMLID_442_" class="st8" d="M-649.3,726.2"/>
			</g>
			<g id="XMLID_438_">
				
					<linearGradient id="XMLID_11_" gradientUnits="userSpaceOnUse" x1="-642.95" y1="2202.624" x2="-642.95" y2="2184.8804" gradientTransform="matrix(1 0 0 1 0 -1431.2)">
					<stop  offset="0" style="stop-color:#C52762"/>
					<stop  offset="1" style="stop-color:#CB5933"/>
				</linearGradient>
				<line id="XMLID_440_" class="st9" x1="-643" y1="755.6" x2="-643" y2="769.5"/>
				
					<linearGradient id="XMLID_12_" gradientUnits="userSpaceOnUse" x1="-642.95" y1="2181.8442" x2="-642.95" y2="2174.4919" gradientTransform="matrix(1 0 0 1 0 -1431.2)">
					<stop  offset="0" style="stop-color:#DC932D"/>
					<stop  offset="1" style="stop-color:#EABD30"/>
				</linearGradient>
				<line id="XMLID_439_" class="st10" x1="-643" y1="745.2" x2="-643" y2="748.7"/>
			</g>
			<g id="XMLID_432_">
				
					<linearGradient id="XMLID_13_" gradientUnits="userSpaceOnUse" x1="-636.65" y1="2202.624" x2="-636.65" y2="2188.3354" gradientTransform="matrix(1 0 0 1 0 -1431.2)">
					<stop  offset="0" style="stop-color:#C52762"/>
					<stop  offset="1" style="stop-color:#CB5933"/>
				</linearGradient>
				<line id="XMLID_437_" class="st11" x1="-636.7" y1="759.1" x2="-636.7" y2="769.5"/>
				
					<linearGradient id="XMLID_14_" gradientUnits="userSpaceOnUse" x1="-636.65" y1="2185.3052" x2="-636.65" y2="2177.9529" gradientTransform="matrix(1 0 0 1 0 -1431.2)">
					<stop  offset="0" style="stop-color:#DC932D"/>
					<stop  offset="1" style="stop-color:#EABD30"/>
				</linearGradient>
				<line id="XMLID_436_" class="st12" x1="-636.7" y1="748.7" x2="-636.7" y2="752.2"/>
				
					<linearGradient id="XMLID_15_" gradientUnits="userSpaceOnUse" x1="-636.65" y1="2174.9141" x2="-636.65" y2="2171.0254" gradientTransform="matrix(1 0 0 1 0 -1431.2)">
					<stop  offset="0" style="stop-color:#48549A"/>
					<stop  offset="1" style="stop-color:#539385"/>
				</linearGradient>
				<line id="XMLID_434_" class="st13" x1="-636.7" y1="741.8" x2="-636.7" y2="741.8"/>
			</g>
			<g id="XMLID_428_">
				
					<linearGradient id="XMLID_16_" gradientUnits="userSpaceOnUse" x1="-630.25" y1="2202.624" x2="-630.25" y2="2188.3354" gradientTransform="matrix(1 0 0 1 0 -1431.2)">
					<stop  offset="0" style="stop-color:#C52762"/>
					<stop  offset="1" style="stop-color:#CB5933"/>
				</linearGradient>
				<line id="XMLID_431_" class="st14" x1="-630.3" y1="759.1" x2="-630.3" y2="769.5"/>
				
					<linearGradient id="XMLID_17_" gradientUnits="userSpaceOnUse" x1="-630.25" y1="2185.3052" x2="-630.25" y2="2174.4893" gradientTransform="matrix(1 0 0 1 0 -1431.2)">
					<stop  offset="0" style="stop-color:#DC932D"/>
					<stop  offset="1" style="stop-color:#EABD30"/>
				</linearGradient>
				<line id="XMLID_430_" class="st15" x1="-630.3" y1="745.2" x2="-630.3" y2="752.2"/>
				
					<linearGradient id="XMLID_18_" gradientUnits="userSpaceOnUse" x1="-630.25" y1="2171.4502" x2="-630.25" y2="2165.8308" gradientTransform="matrix(1 0 0 1 0 -1431.2)">
					<stop  offset="0" style="stop-color:#48549A"/>
					<stop  offset="1" style="stop-color:#539385"/>
				</linearGradient>
				<line id="XMLID_429_" class="st16" x1="-630.3" y1="736.6" x2="-630.3" y2="738.3"/>
			</g>
			<g id="XMLID_425_">
				
					<linearGradient id="XMLID_19_" gradientUnits="userSpaceOnUse" x1="-623.45" y1="2201.6443" x2="-623.45" y2="2163.1182" gradientTransform="matrix(1 0 0 1 0 -1431.2)">
					<stop  offset="0" style="stop-color:#C52762"/>
					<stop  offset="1" style="stop-color:#CB5933"/>
				</linearGradient>
				<line id="XMLID_427_" class="st17" x1="-623.5" y1="733.8" x2="-623.5" y2="768.5"/>
				
					<linearGradient id="XMLID_20_" gradientUnits="userSpaceOnUse" x1="-617.55" y1="2160.0999" x2="-617.55" y2="2160.0999" gradientTransform="matrix(1 0 0 1 0 -1431.2)">
					<stop  offset="0" style="stop-color:#48549A"/>
					<stop  offset="1" style="stop-color:#539385"/>
				</linearGradient>
				<path id="XMLID_426_" class="st18" d="M-617.5,728.9"/>
			</g>
		</g>
	</g>
	<g class="st19">
		<path class="st20" d="M-610.3,735.8h7c3.9,0,6.5,0.2,7.9,0.5c2.1,0.5,3.8,1.5,5.1,3.1c1.3,1.6,2,3.5,2,5.8c0,1.9-0.4,3.6-1.3,5
			c-0.9,1.4-2.2,2.5-3.9,3.3c-1.7,0.8-3.2,1-4.4,1l10,16.3h-4.3l-10-16.3h-4.6v16.3h-3.5V735.8L-610.3,735.8z M-606.8,739.2v11.9h6
			c2.3,0,4.1-0.2,5.2-0.7c1.1-0.4,2-1.1,2.6-2.1c0.6-1,0.9-2.1,0.9-3.3s-0.3-2.2-1-3.2c-0.6-1-1.5-1.7-2.5-2.1
			c-1-0.4-2.7-0.6-5.2-0.6h-6V739.2z"/>
		<path class="st20" d="M-566.5,735.7l16.3,35h-3.7l-5.5-11.6h-15.1l-5.5,11.6h-3.9l16.6-35H-566.5z M-567,743.1l-6,12.7h12
			L-567,743.1z"/>
		<path class="st20" d="M-544.5,735.8h7c3.9,0,6.5,0.2,7.9,0.5c2.1,0.5,3.8,1.5,5.1,3.1c1.3,1.6,2,3.5,2,5.8c0,1.9-0.4,3.6-1.3,5
			c-0.9,1.4-2.2,2.5-3.9,3.3s-3.2,1-4.4,1l10,16.3h-4.3l-10-16.3h-4.6v16.3h-3.5V735.8z M-541,739.2v11.9h6c2.3,0,4.1-0.2,5.2-0.7
			c1.1-0.4,2-1.1,2.6-2.1c0.6-1,0.9-2.1,0.9-3.3s-0.3-2.2-1-3.2c-0.7-1-1.5-1.7-2.5-2.1c-1-0.4-2.7-0.6-5.2-0.6h-6V739.2z"/>
		<path class="st20" d="M-515.2,735.8h20.1v3.5h-16.6v11h10.1v3.4h-10.1v13.8h16.4v3.5h-19.9V735.8z"/>
	</g>
</g>
</svg>
