<svg id="Layer_1" xmlns="http://www.w3.org/2000/svg" viewBox="0 0 1500 1500"><style>.st0,.st1{opacity:.28;fill:url(#XMLID_2632_)}.st1{fill:url(#XMLID_2633_)}</style><linearGradient id="XMLID_2632_" gradientUnits="userSpaceOnUse" x1="72.516" y1="716.365" x2="1387.845" y2="716.365" gradientTransform="rotate(-180 573.296 649.937)"><stop offset="0" stop-color="#4e4e4e"/><stop offset=".205" stop-color="#989898"/><stop offset=".337" stop-color="#e1e1e1"/><stop offset=".532" stop-color="#bdbdbd"/><stop offset=".746" stop-color="#b3b3b3"/><stop offset="1" stop-color="#707070"/></linearGradient><path id="XMLID_2_" class="st0" d="M413.7 818.2h-17.2v-23.9h17.2v23.9zm-.8-48.4h-15.6v21.6h15.6v-21.6zm-.2-25.2h-15v20.8h15v-20.8zm-.3-24H398v20h14.4v-20zm-.2-25.1h-13.9v19.3h13.9v-19.3zm-.2-22.9h-13.3v18.5H412v-18.5zm-.3-22.1H399v17.7h12.7v-17.7zm-.2-22.1h-12.2v16.9h12.2v-16.9zm-.3-22.1h-11.6v16.1h11.6v-16.1zm-.2-20.9h-11.1v15.4H411v-15.4zm-.3-20.9h-10.5v14.6h10.5v-14.6zm-.2-19.2h-9.9v13.8h9.9v-13.8zm-.3-17.1h-9.4v13h9.4v-13zM410 511h-8.8v12.2h8.8V511zm-.3-17.1h-8.2v11.4h8.2v-11.4zm-.2-17.2h-7.7v10.7h7.7v-10.7zm-.3-17.1h-7.1v9.9h7.1v-9.9zm-.2-17.2h-6.6v9.1h6.6v-9.1zm24.1 351.9h-17.2v23.9h17.2v-23.9zm-.8-24.4h-15.6v21.6h15.6v-21.6zm-.2-25.2h-15v20.8h15v-20.8zm-.2-24h-14.4v20h14.4v-20zm-.3-25.2h-13.9v19.3h13.9v-19.3zm-.2-22.9h-13.3v18.5h13.3v-18.5zm-.3-22.1h-12.7v17.7h12.7v-17.7zm-.2-22.1h-12.2v16.9h12.2v-16.9zm-.3-22H419v16.1h11.6v-16.1zm-.2-21h-11.1v15.4h11.1v-15.4zm-.2-20.9h-10.5v14.6h10.5v-14.6zm-.3-19.1H420v13.8h9.9v-13.8zm-.2-17.2h-9.4v13h9.4v-13zm-.3-17.1h-8.8v12.2h8.8v-12.2zm-.3-17.2h-8.2v11.4h8.2v-11.4zm-.2-17.1h-7.7v10.7h7.7v-10.7zm-.3-17.2h-7.1v9.9h7.1v-9.9zm-.2-17.2h-6.6v9.1h6.6v-9.1zm-.3-17.1h-6v8.3h6v-8.3zm-.2-17.2h-5.4v7.5h5.4v-7.5zm-.3-17.1h-4.9v6.8h4.9V391zm25 403.3h-17.2v23.9h17.2v-23.9zm-.9-24.4h-15.6v21.6h15.6v-21.6zm-.2-25.2h-15v20.8h15v-20.8zm-.2-24h-14.4v20h14.4v-20zm-.3-25.2h-13.9v19.3H451v-19.3zm-.2-22.8h-13.3v18.5h13.3v-18.5zm-.3-22.1h-12.7v17.7h12.7v-17.7zm-.2-22.1h-12.2v16.9h12.2v-16.9zm-.2-22.1h-11.6v16.1h11.6v-16.1zm-.3-20.9h-11.1v15.4h11.1v-15.4zm-.2-21h-10.5v14.6h10.5v-14.6zm-.3-19.1h-9.9v13.8h9.9v-13.8zm-.2-17.2h-9.4v13h9.4v-13zm-.3-17.1H440v12.2h8.8v-12.2zm-.2-17.2h-8.2v11.4h8.2v-11.4zm-.3-17.1h-7.7v10.7h7.7v-10.7zm-.2-17.2H441v9.9h7.1v-9.9zM472 794.3h-17.2v23.9H472v-23.9zm-.8-24.4h-15.6v21.6h15.6v-21.6zm-.3-25.2h-15v20.8h15v-20.8zm-.2-24h-14.4v20h14.4v-20zm-.3-25.1h-13.9v19.3h13.9v-19.3zm-.2-22.9h-13.3v18.5h13.3v-18.5zm-.2-22.1h-12.7v17.7H470v-17.7zm-.3-22.1h-12.2v16.9h12.2v-16.9zm-.2-22.1h-11.6v16.1h11.6v-16.1zm-.3-20.9h-11.1v15.4h11.1v-15.4zm-.2-20.9h-10.5v14.6H469v-14.6zm-.3-19.2h-9.9v13.8h9.9v-13.8zm-.2-17.1h-9.4v13h9.4v-13zm-.3-17.2h-8.8v12.2h8.8v-12.2zM468 494h-8.2v11.4h8.2V494zm-.3-17.2H460v10.7h7.7v-10.7zm-.2-17.1h-7.1v9.9h7.1v-9.9zm-.3-17.2h-6.6v9.1h6.6v-9.1zm-.2-17.1h-6v8.3h6v-8.3zm-.3-17.2h-5.4v7.5h5.4v-7.5zm-.2-17.1h-4.9v6.8h4.9v-6.8zm-.3-12.3h-4.3v6h4.3v-6zm25.2 415.6h-17.2v23.9h17.2v-23.9zm-.8-24.4H475v21.6h15.6V770zm-.3-25.2h-15v20.8h15v-20.8zm-.2-24h-14.4v20h14.4v-20zm-.2-25.2H476v19.3h13.9v-19.3zm-.3-22.9h-13.3v18.5h13.3v-18.5zm-.2-22.1h-12.7v17.7h12.7v-17.7zm-.3-22.1h-12.2v16.9h12.2v-16.9zm-.2-22h-11.6v16.1h11.6v-16.1zm-.3-21h-11.1v15.4h11.1v-15.4zm-.2-20.9h-10.5v14.6h10.5v-14.6zm-.2-19.1h-9.9v13.8h9.9v-13.8zm-.3-17.2h-9.4v13h9.4v-13zm-.3-17.1h-8.8v12.2h8.8v-12.2zm-.2-17.2h-8.2v11.4h8.2V494zm-.3-17.1h-7.7v10.7h7.7v-10.7zm-.2-17.2h-7.1v9.9h7.1v-9.9zm-.3-17.2H480v9.1h6.6v-9.1zm-.2-17.1h-6v8.3h6v-8.3zm-.3-17.2h-5.4v7.5h5.4v-7.5zm-.2-17.1H481v6.8h4.9v-6.8zm-.3-12.3h-4.3v6h4.3v-6zm-.2-12.2h-3.7v5.2h3.7v-5.2zm-.3-10.1h-3.2v4.4h3.2v-4.4zm-.3-8.1h-2.6v3.6h2.6v-3.6zm26 446h-17.2v23.9h17.2v-23.9zM510 770h-15.6v21.6H510V770zm-.2-25.2h-15v20.8h15v-20.8zm-.3-24h-14.4v20h14.4v-20zm-.2-25.2h-13.9v19.3h13.9v-19.3zm-.3-22.8h-13.3v18.5H509v-18.5zm-.2-22.1h-12.7v17.7h12.7v-17.7zm-.3-22.1h-12.2v16.9h12.2v-16.9zm-.2-22.1h-11.6v16.1h11.6v-16.1zm-.2-20.9H497V601h11.1v-15.4zm-.3-21h-10.5v14.6h10.5v-14.6zm-.2-19.1h-9.9v13.8h9.9v-13.8zm-.3-17.2h-9.4v13h9.4v-13zm-.2-17.1h-8.8v12.2h8.8v-12.2zm-.3-17.2h-8.2v11.4h8.2V494zm-.2-17.1h-7.7v10.7h7.7v-10.7zm23.6 317.5H513v23.9h17.2v-23.9zm-.8-24.4h-15.6v21.6h15.6V770zm-.2-25.2h-15v20.8h15v-20.8zm-.3-24h-14.4v20h14.4v-20zm-.2-25.1h-13.9V715h13.9v-19.3zm-.2-22.9h-13.3v18.5h13.3v-18.5zm-.3-22.1h-12.7v17.7h12.7v-17.7zm-.2-22.1h-12.2v16.9H528v-16.9zm-.3-22.1h-11.6v16.1h11.6v-16.1zm-.2-20.9h-11.1V601h11.1v-15.4zm-.3-20.9h-10.5v14.6h10.5v-14.6zm-.2-19.2h-9.9v13.8h9.9v-13.8zm-.3-17.1h-9.4v13h9.4v-13zm-.2-17.2h-8.8v12.2h8.8v-12.2zm-.3-17.1H518v11.4h8.2v-11.4zm-.2-17.2h-7.7v10.7h7.7v-10.7zm-.3-17.1h-7.1v9.9h7.1v-9.9zm-.2-17.2h-6.6v9.1h6.6v-9.1zm24.1 351.9h-17.2v23.9h17.2v-23.9zm-.8-24.4h-15.6v21.6h15.6v-21.6zm-.2-25.2h-15v20.8h15v-20.8zm-.3-24h-14.4v20h14.4v-20zm-.2-25.2h-13.9V715h13.9v-19.3zm-.2-22.9h-13.3v18.5h13.3v-18.5zm-.3-22.1h-12.7v17.7h12.7v-17.7zm-.2-22.1h-12.2v16.9h12.2v-16.9zm-.3-22h-11.6v16.1h11.6v-16.1zm-.2-21h-11.1V601h11.1v-15.4zm-.3-20.9h-10.5v14.6h10.5v-14.6zm-.2-19.1h-9.9v13.8h9.9v-13.8zm-.3-17.2h-9.4v13h9.4v-13zm-.2-17.1h-8.8v12.2h8.8v-12.2zm-.3-17.2h-8.2v11.4h8.2v-11.4zm-.2-17.1h-7.7v10.7h7.7V477zm-.3-17.2H538v9.9h7.1v-9.9zm-.2-17.2h-6.6v9.1h6.6v-9.1zm-.3-17.1h-6v8.3h6v-8.3zm-.2-17.2H539v7.5h5.4v-7.5zm-.3-17.1h-4.9v6.8h4.9v-6.8zm-.2-12.3h-4.3v6h4.3v-6zM569 794.5h-17.2v23.9H569v-23.9zm-.8-24.4h-15.6v21.6h15.6v-21.6zm-.2-25.2h-15v20.8h15v-20.8zm-.2-24h-14.4v20h14.4v-20zm-.3-25.2h-13.9V715h13.9v-19.3zm-.2-22.8H554v18.5h13.3v-18.5zm-.3-22.1h-12.7v17.7H567v-17.7zm-.2-22.1h-12.2v16.9h12.2v-16.9zm-.2-22.1H555v16.1h11.6v-16.1zm-.3-20.9h-11.1v15.4h11.1v-15.4zm-.2-21h-10.5v14.6h10.5v-14.6zm22.4 229.8h-17.2v23.9h17.2v-23.9zm-.8-24.4h-15.6v21.6h15.6v-21.6zm-.3-25.2h-15v20.8h15v-20.8zm-.2-24h-14.4v20h14.4v-20zm-.3-25.1H573v19.3h13.9v-19.3zm-.2-22.9h-13.3v18.5h13.3v-18.5zm-.2-22.1h-12.7v17.7h12.7v-17.7zm-.3-22.1H574v16.9h12.2v-16.9zm-.2-22.1h-11.6v16.1H586v-16.1zm-.3-20.9h-11.1v15.4h11.1v-15.4zm-.2-20.9H575v14.6h10.5v-14.6zm-.3-19.2h-9.9v13.8h9.9v-13.8zm-.2-17.1h-9.4v13h9.4v-13zm-.3-17.2h-8.8v12.2h8.8v-12.2zm-.2-17.1h-8.2v11.4h8.2v-11.4zm-.3-17.2h-7.7v10.7h7.7V477zm23.7 317.6h-17.2v23.9h17.2v-23.9zm-.8-24.4h-15.6v21.6h15.6v-21.6zm-.3-25.2h-15v20.8h15V745zm-.2-24h-14.4v20h14.4v-20zm-.2-25.2h-13.9v19.3h13.9v-19.3zm-.3-22.9h-13.3v18.5h13.3v-18.5zm-.2-22.1h-12.7v17.7h12.7v-17.7zm-.3-22.1h-12.2v16.9h12.2v-16.9zm-.2-22h-11.6v16.1h11.6v-16.1zm-.3-21H594v15.4h11.1v-15.4zm-.2-20.9h-10.5v14.6h10.5v-14.6zm-.3-19.1h-9.9v13.8h9.9v-13.8zm-.2-17.2H595v13h9.4v-13zm-.3-17.1h-8.8v12.2h8.8v-12.2zm-.2-17.2h-8.2v11.4h8.2v-11.4zm-.3-17.1h-7.7v10.7h7.7v-10.7zm-.2-17.2h-7.1v9.9h7.1v-9.9zm-.3-17.2h-6.6v9.1h6.6v-9.1zm-.2-17.1h-6v8.3h6v-8.3zm-.3-17.2h-5.4v7.5h5.4v-7.5zm24.7 386.2h-17.2v23.9h17.2v-23.9zm-.8-24.4h-15.6v21.6h15.6v-21.6zm-.3-25.2h-15v20.8h15V745zm-.2-24h-14.4v20H626v-20zm-.2-25.2h-13.9v19.3h13.9v-19.3zm-.3-22.8h-13.3v18.5h13.3V673zm-.2-22.1h-12.7v17.7h12.7v-17.7zm-.3-22.1h-12.2v16.9H625v-16.9zm-.2-22.1h-11.6v16.1h11.6v-16.1zm-.3-20.9h-11.1v15.4h11.1v-15.4zm-.2-21h-10.5v14.6h10.5v-14.6zm-.2-19.1h-9.9v13.8h9.9v-13.8zm-.3-17.2h-9.4v13h9.4v-13zm-.2-17.1h-8.8v12.2h8.8v-12.2zm-.3-17.2h-8.2v11.4h8.2v-11.4zm-.3-17.1h-7.7v10.7h7.7v-10.7zm-.2-17.2h-7.1v9.9h7.1v-9.9zm-.3-17.1h-6.6v9.1h6.6v-9.1zm-.2-17.2h-6v8.3h6v-8.3zm-.3-17.1h-5.4v7.5h5.4v-7.5zm-.2-17.2h-4.9v6.8h4.9v-6.8zm-.3-12.3h-4.3v6h4.3v-6zm-.2-12.2h-3.7v5.2h3.7v-5.2zm-.3-10.1h-3.2v4.4h3.2v-4.4zm-.3-8.1h-2.6v3.6h2.6v-3.6zm26 446h-17.2v23.9h17.2v-23.9zm-.8-24.4h-15.6v21.6h15.6v-21.6zm-.2-25.2h-15v20.8h15V745zm-.3-24H631v20h14.4v-20zm-.2-25.1h-13.9v19.3h13.9v-19.3zm-.3-22.9h-13.3v18.5h13.3V673zm-.2-22.1H632v17.7h12.7v-17.7zm-.2-22.1h-12.2v16.9h12.2v-16.9zm-.3-22.1h-11.6v16.1h11.6v-16.1zm-.2-20.9h-11.1v15.4H644v-15.4zm-.3-20.9h-10.5v14.6h10.5v-14.6zm-.2-19.2h-9.9v13.8h9.9v-13.8zm-.3-17.1h-9.4v13h9.4v-13zm22.9 266.1h-17.2v23.9h17.2v-23.9zm-.8-24.4h-15.6v21.6h15.6v-21.6zm-.2-25.2h-15v20.8h15v-20.8zm-.3-24h-14.4v20h14.4v-20zm-.2-25.2h-13.9v19.3h13.9v-19.3zm-.2-22.9h-13.3v18.5h13.3V673zm-.3-22.1h-12.7v17.7h12.7v-17.7zm-.2-22.1h-12.2v16.9h12.2v-16.9zm-.3-22H652v16.1h11.6v-16.1zm-.2-21h-11.1v15.4h11.1v-15.4zm-.3-20.9h-10.5v14.6h10.5v-14.6zm-.2-19.1H653v13.8h9.9v-13.8zm-.3-17.2h-9.4v13h9.4v-13zm-.2-17.1h-8.8v12.2h8.8v-12.2zm-.3-17.2h-8.2v11.4h8.2v-11.4zm-.2-17.1h-7.7v10.7h7.7v-10.7zm-.3-17.2h-7.1v9.9h7.1V460zm-.2-17.2h-6.6v9.1h6.6v-9.1zm-.3-17.1h-6v8.3h6v-8.3zm-.2-17.2h-5.4v7.5h5.4v-7.5zm24.6 386.2h-17.2v23.9h17.2v-23.9zm-.8-24.4h-15.6v21.6h15.6v-21.6zm-.2-25.2h-15v20.8h15v-20.8zm-.2-24h-14.4v20h14.4v-20zm-.3-25.2h-13.9v19.3H684v-19.3zm-.2-22.8h-13.3v18.5h13.3v-18.5zm-.3-22.1h-12.7v17.7h12.7V651zm-.2-22.1h-12.2v16.9h12.2v-16.9zm-.3-22.1h-11.6v16.1H683v-16.1zm-.2-20.9h-11.1v15.4h11.1v-15.4zm-.2-21h-10.5v14.6h10.5v-14.6zm-.3-19.1h-9.9v13.8h9.9v-13.8zm-.2-17.2h-9.4v13h9.4v-13zm-.3-17.1H673v12.2h8.8v-12.2zm-.3-17.2h-8.2v11.4h8.2v-11.4zm-.2-17.1h-7.7v10.7h7.7v-10.7zM681 460h-7.1v9.9h7.1V460zm-.2-17.1h-6.6v9.1h6.6v-9.1zm-.3-17.2h-6v8.3h6v-8.3zm-.2-17.1h-5.4v7.5h5.4v-7.5zm-.3-17.2h-4.9v6.8h4.9v-6.8zm-.2-12.3h-4.3v6h4.3v-6zm-.3-12.2h-3.7v5.2h3.7v-5.2zm25.4 427.8h-17.2v23.9h17.2v-23.9zm-.8-24.4h-15.6v21.6h15.6v-21.6zm-.2-25.2h-15v20.8h15v-20.8zm-.2-24h-14.4v20h14.4v-20zm-.3-25.1h-13.9v19.3h13.9V696zm-.2-22.9h-13.3v18.5h13.3v-18.5zm-.3-22.1h-12.7v17.7h12.7V651zm21.5 143.8h-17.2v23.9h17.2v-23.9zm-.8-24.4H708V792h15.6v-21.6zm-.3-25.2h-15V766h15v-20.8zm-.2-24h-14.4v20h14.4v-20zm-.3-25.2h-13.9v19.3h13.9V696zm-.2-22.9h-13.3v18.5h13.3v-18.5zm-.2-22.1h-12.7v17.7h12.7V651zm-.3-22.1h-12.2v16.9h12.2v-16.9zm-.2-22h-11.6V623h11.6v-16.1zm-.3-21h-11.1v15.4h11.1v-15.4zm-.2-20.9h-10.5v14.6h10.5V565zm-.3-19.1h-9.9v13.8h9.9v-13.8zm22.7 248.9h-17.2v23.9h17.2v-23.9zm-.8-24.4h-15.6V792H743v-21.6zm-.3-25.2h-15V766h15v-20.8zm-.2-24h-14.4v20h14.4v-20zm-.2-25.2h-13.9v19.3h13.9V696zm-.3-22.8h-13.3v18.5H742v-18.5zm-.2-22.1h-12.7v17.7h12.7v-17.7zm-.3-22.1h-12.2v16.9h12.2V629zm-.2-22.1h-11.6V623h11.6v-16.1zM741 586h-11.1v15.4H741V586zm-.2-21h-10.5v14.6h10.5V565zm-.3-19.1h-9.9v13.8h9.9v-13.8zm-.2-17.2h-9.4v13h9.4v-13zm-.3-17.1h-8.8v12.2h8.8v-12.2zm-.2-17.2h-8.2v11.4h8.2v-11.4zm-.3-17.1h-7.7V488h7.7v-10.7zm-.2-17.2h-7.1v9.9h7.1v-9.9zM739 443h-6.6v9.1h6.6V443zm-.2-17.2h-6v8.3h6v-8.3zm-.3-17.1h-5.4v7.5h5.4v-7.5zm-.2-17.2h-4.9v6.8h4.9v-6.8zm24.9 403.3H746v23.9h17.2v-23.9zm-.8-24.4h-15.6V792h15.6v-21.6zm-.3-25.2h-15V766h15v-20.8zm-.2-24h-14.4v20h14.4v-20zm-.2-25.1h-13.9v19.3h13.9v-19.3zm-.3-22.9h-13.3v18.5h13.3v-18.5zm-.2-22.1h-12.7v17.7h12.7v-17.7zm-.3-22.1h-12.2v16.9h12.2V629zm-.2-22.1h-11.6V623h11.6v-16.1zm-.2-20.9h-11.1v15.4h11.1V586zm-.3-20.9h-10.5v14.6h10.5v-14.6zm-.2-19.2h-9.9v13.8h9.9v-13.8zm-.3-17.1h-9.4v13h9.4v-13zm22.9 266.1h-17.2v23.9h17.2v-23.9zm-.8-24.4h-15.6v21.6h15.6v-21.6zm-.2-25.2h-15v20.8h15v-20.8zm-.3-24h-14.4v20h14.4v-20zm-.2-25.2h-13.9v19.3h13.9v-19.3zm-.3-22.9h-13.3v18.5h13.3v-18.5zm-.2-22.1h-12.7v17.7h12.7v-17.7zm-.2-22.1h-12.2v16.9h12.2V629zm-.3-22h-11.6v16.1h11.6V607zm-.2-21h-11.1v15.4h11.1V586zm-.3-20.9h-10.5v14.6h10.5v-14.6zm-.2-19.1h-9.9v13.8h9.9V546zm-.3-17.2h-9.4v13h9.4v-13zm-.2-17.1h-8.8v12.2h8.8v-12.2zm-.3-17.2h-8.2v11.4h8.2v-11.4zm-.2-17.1h-7.7v10.7h7.7v-10.7zm-.3-17.2H771v9.9h7.1v-9.9zm-.2-17.2h-6.6v9.1h6.6V443zM802 794.9h-17.2v23.9H802v-23.9zm-.8-24.4h-15.6v21.6h15.6v-21.6zm-.2-25.2h-15v20.8h15v-20.8zm-.3-24h-14.4v20h14.4v-20zm-.2-25.2h-13.9v19.3h13.9v-19.3zm-.2-22.8H787v18.5h13.3v-18.5zm-.3-22.1h-12.7v17.7H800v-17.7zm-.2-22.1h-12.2V646h12.2v-16.9zm-.3-22.1h-11.6v16.1h11.6V607zm-.2-20.9h-11.1v15.4h11.1v-15.4zm-.3-21h-10.5v14.6H799v-14.6zm-.2-19.1h-9.9v13.8h9.9V546zm-.3-17.2h-9.4v13h9.4v-13zm-.2-17.1h-8.8v12.2h8.8v-12.2zm-.3-17.2h-8.2v11.4h8.2v-11.4zm-.2-17.1h-7.7v10.7h7.7v-10.7zm-.3-17.2h-7.1v9.9h7.1v-9.9zm-.2-17.1h-6.6v9.1h6.6v-9.1zm-.3-17.2h-6v8.3h6v-8.3zm-.2-17.1h-5.4v7.5h5.4v-7.5zm-.3-17.2h-4.9v6.8h4.9v-6.8zm24.9 403.3h-17.2v23.9h17.2v-23.9zm-.8-24.4H805v21.6h15.6v-21.6zm-.2-25.2h-15v20.8h15v-20.8zm-.2-24h-14.4v20h14.4v-20zm-.3-25.1H806v19.3h13.9v-19.3zm-.2-22.9h-13.3v18.5h13.3v-18.5zm-.3-22.1h-12.7v17.7h12.7v-17.7zm-.2-22.1H807V646h12.2v-16.9zm-.3-22.1h-11.6v16.1h11.6V607zm-.2-20.9h-11.1v15.4h11.1v-15.4zm-.2-20.9H808v14.6h10.5v-14.6zm-.3-19.2h-9.9v13.8h9.9V546zm-.2-17.1h-9.4v13h9.4v-13zm-.3-17.2h-8.8v12.2h8.8v-12.2zm-.3-17.1h-8.2V506h8.2v-11.4zm-.2-17.2h-7.7v10.7h7.7v-10.7zm-.3-17.1h-7.1v9.9h7.1v-9.9zm-.2-17.2h-6.6v9.1h6.6v-9.1zm-.3-17.1h-6v8.3h6V426zm-.2-17.2h-5.4v7.5h5.4v-7.5zm-.3-17.1H811v6.8h4.9v-6.8zm-.2-12.3h-4.3v6h4.3v-6zm-.3-12.2h-3.7v5.2h3.7v-5.2zm-.2-10.1H812v4.4h3.2v-4.4zm-.3-8.1h-2.6v3.6h2.6V349zm25.9 446h-17.2v23.9h17.2V795zm-.8-24.4h-15.6v21.6H840v-21.6zm-.2-25.2h-15v20.8h15v-20.8zm-.2-24h-14.4v20h14.4v-20zm-.3-25.2h-13.9v19.3h13.9v-19.3zm-.2-22.9h-13.3v18.5h13.3v-18.5zm-.3-22.1h-12.7v17.7h12.7v-17.7zm-.2-22.1h-12.2V646h12.2v-16.9zm-.2-22h-11.6v16.1h11.6v-16.1zm-.3-21H827v15.4h11.1v-15.4zm-.2-20.9h-10.5v14.6h10.5v-14.6zm-.3-19.1h-9.9v13.8h9.9v-13.8zm-.2-17.2H828v13h9.4v-13zm-.3-17.1h-8.8V524h8.8v-12.2zm-.2-17.2h-8.2V506h8.2v-11.4zm-.3-17.1h-7.7v10.7h7.7v-10.7zm-.2-17.2h-7.1v9.9h7.1v-9.9zm-.3-17.2h-6.6v9.1h6.6v-9.1zm-.2-17.1h-6v8.3h6V426zm24.4 369h-17.2v23.9h17.2V795zm-.8-24.4h-15.6v21.6h15.6v-21.6zm-.3-25.2h-15v20.8h15v-20.8zm-.2-24h-14.4v20H859v-20zm-.3-25.2h-13.9v19.3h13.9v-19.3zm-.2-22.8h-13.3v18.5h13.3v-18.5zm-.2-22.1h-12.7V669h12.7v-17.7zm-.3-22.1h-12.2v16.9H858v-16.9zm-.2-22.1h-11.6v16.1h11.6v-16.1zm-.3-20.9h-11.1v15.4h11.1v-15.4zm-.2-21h-10.5v14.6h10.5v-14.6zm-.3-19.1h-9.9v13.8h9.9v-13.8zm-.2-17.2h-9.4v13h9.4v-13zm-.3-17.1h-8.8V524h8.8v-12.2zm-.2-17.2h-8.2V506h8.2v-11.4zM879.7 795h-17.2v23.9h17.2V795zm-.8-24.4h-15.6v21.6h15.6v-21.6zm-.3-25.2h-15v20.8h15v-20.8zm-.2-24H864v20h14.4v-20zm-.2-25.1h-13.9v19.3h13.9v-19.3zm-.3-22.9h-13.3v18.5h13.3v-18.5zm-.2-22.1H865V669h12.7v-17.7zm-.3-22.1h-12.2v16.9h12.2v-16.9zm-.2-22.1h-11.6v16.1h11.6v-16.1zm-.3-20.9h-11.1v15.4h11.1v-15.4zm-.2-20.9h-10.5v14.6h10.5v-14.6zm-.2-19.2h-9.9v13.8h9.9v-13.8zm-.3-17.1h-9.4v13h9.4v-13zm-.3-17.2h-8.8V524h8.8v-12.2zm-.2-17.1h-8.2v11.4h8.2v-11.4zm-.3-17.2h-7.7v10.7h7.7v-10.7zm-.2-17.1h-7.1v9.9h7.1v-9.9zm-.3-17.2h-6.6v9.1h6.6v-9.1zm-.2-17.1h-6v8.3h6v-8.3zm-.3-17.2H869v7.5h5.4v-7.5zm24.7 386.2h-17.2V819h17.2v-23.9zm-.8-24.4h-15.6v21.6h15.6v-21.6zm-.2-25.2h-15v20.8h15v-20.8zm-.3-24h-14.4v20h14.4v-20zm-.2-25.2h-13.9v19.3h13.9v-19.3zm-.3-22.9H884v18.5h13.3v-18.5zm-.2-22.1h-12.7V669h12.7v-17.7zm-.3-22.1h-12.2v16.9h12.2v-16.9zm-.2-22H885v16.1h11.6v-16.1zm-.2-21h-11.1v15.4h11.1v-15.4zm-.3-20.9h-10.5v14.6h10.5v-14.6zm-.2-19.1H886V560h9.9v-13.8zm-.3-17.2h-9.4v13h9.4v-13zm-.2-17.1h-8.8v12.2h8.8v-12.2zm-.3-17.2h-8.2v11.4h8.2v-11.4zm-.2-17.1h-7.7v10.7h7.7v-10.7zm-.3-17.2h-7.1v9.9h7.1v-9.9zm-.2-17.2h-6.6v9.1h6.6v-9.1zm-.3-17.1h-6v8.3h6v-8.3zm-.3-17.2h-5.4v7.5h5.4v-7.5zm-.2-17.1h-4.9v6.8h4.9v-6.8zm-.3-12.3H889v6h4.3v-6zm-.2-12.2h-3.7v5.2h3.7v-5.2zm-.3-10.1h-3.2v4.4h3.2v-4.4zm-.3-8.1h-2.6v3.6h2.6v-3.6zm26 446h-17.2V819h17.2v-23.9zm-.8-24.4h-15.6v21.6h15.6v-21.6zm-.2-25.2h-15v20.8h15v-20.8zm-.3-24h-14.4v20h14.4v-20zm-.2-25.2h-13.9v19.3H917v-19.3zm-.3-22.8h-13.3V692h13.3v-18.5zm-.2-22.1h-12.7v17.7h12.7v-17.7zm-.2-22.1h-12.2v16.9h12.2v-16.9zm-.3-22.1h-11.6v16.1H916v-16.1zm-.2-20.9h-11.1v15.4h11.1v-15.4zm-.3-21H905v14.6h10.5v-14.6zm22.4 229.8h-17.2V819h17.2v-23.9zm-.8-24.4h-15.6v21.6h15.6v-21.6zm-.2-25.2h-15v20.8h15v-20.8zm-.3-24h-14.4v20h14.4v-20zm-.2-25.1h-13.9v19.3h13.9v-19.3zm-.2-22.9h-13.3V692h13.3v-18.5zm-.3-22.1h-12.7v17.7h12.7v-17.7zm-.2-22.1h-12.2v16.9h12.2v-16.9zm-.3-22.1h-11.6v16.1h11.6v-16.1zm-.2-20.9h-11.1v15.4h11.1v-15.4zm-.3-20.9h-10.5V580h10.5v-14.6zm-.2-19.2h-9.9V560h9.9v-13.8zm-.3-17.1H925v13h9.4v-13zm-.2-17.2h-8.8v12.2h8.8v-12.2zm23.1 283.3h-17.2v23.9h17.2v-23.9zm-.8-24.4h-15.6v21.6h15.6v-21.6zm-.2-25.2h-15v20.8h15v-20.8zm-.2-24h-14.4v20h14.4v-20zm-.3-25.2h-13.9v19.3h13.9v-19.3zm-.2-22.9h-13.3V692h13.3v-18.5zm-.3-22.1h-12.7v17.7h12.7v-17.7zm-.2-22.1h-12.2v16.9h12.2v-16.9zm-.3-22h-11.6v16.1h11.6v-16.1zm-.2-21h-11.1v15.4h11.1v-15.4zm-.2-20.9h-10.5V580h10.5v-14.6zm-.3-19.1h-9.9v13.8h9.9v-13.8zm-.2-17.2h-9.4v13h9.4v-13zm-.3-17.1h-8.8v12.2h8.8V512zm-.2-17.2h-8.2v11.4h8.2v-11.4zm-.3-17.1h-7.7v10.7h7.7v-10.7zm-.2-17.2h-7.1v9.9h7.1v-9.9zm-.3-17.2H946v9.1h6.6v-9.1zm-.3-17.1h-6v8.3h6v-8.3zm-.2-17.2h-5.4v7.5h5.4V409zm-.3-17.1h-4.9v6.8h4.9v-6.8zm25 403.3h-17.2v23.9h17.2v-23.9zm-.8-24.4h-15.6v21.6H976v-21.6zm-.3-25.2h-15v20.8h15v-20.8zm-.2-24h-14.4v20h14.4v-20zm-.3-25.2h-13.9v19.3h13.9v-19.3zm-.2-22.8h-13.3v18.5H975v-18.5zm-.3-22.1H962v17.7h12.7v-17.7zm-.2-22.1h-12.2v16.9h12.2v-16.9zm-.2-22.1h-11.6v16.1h11.6v-16.1zm-.3-20.9h-11.1v15.4H974v-15.4zm-.2-21h-10.5V580h10.5v-14.6zm-.3-19.1h-9.9v13.8h9.9v-13.8zm-.2-17.2h-9.4v13h9.4v-13zM973 512h-8.8v12.2h8.8V512zm-.2-17.2h-8.2v11.4h8.2v-11.4zm23.4 300.4H979v23.9h17.2v-23.9zm-.8-24.4h-15.6v21.6h15.6v-21.6zm-.3-25.2h-15v20.8h15v-20.8zm-.2-24h-14.4v20h14.4v-20zm-.2-25.1h-13.9v19.3h13.9v-19.3zm-.3-22.9h-13.3v18.5h13.3v-18.5zm-.2-22.1h-12.7v17.7h12.7v-17.7zm-.3-22.1h-12.2v16.9h12.2v-16.9zm-.2-22.1h-11.6v16.1h11.6v-16.1zm-.3-20.9h-11.1v15.4h11.1v-15.4zm-.2-20.9h-10.5v14.6h10.5v-14.6zm-.3-19.2H983v13.8h9.9v-13.8zm-.2-17.1h-9.4v13h9.4v-13zm-.3-17.2h-8.8v12.2h8.8V512zm-.2-17.1H984v11.4h8.2v-11.4zm-.3-17.2h-7.7v10.7h7.7v-10.7zm-.2-17.1h-7.1v9.9h7.1v-9.9zm-.3-17.2h-6.6v9.1h6.6v-9.1zm-.2-17.1h-6v8.3h6v-8.3zm24.4 369h-17.2v23.9h17.2v-23.9zm-.8-24.4h-15.6v21.6h15.6v-21.6zm-.3-25.2h-15v20.8h15v-20.8zm-.2-24h-14.4v20h14.4v-20zm-.2-25.2h-13.9v19.3h13.9v-19.3zm-.3-22.9h-13.3v18.5h13.3v-18.5zm-.2-22.1h-12.7v17.7h12.7v-17.7zm-.3-22.1h-12.2v16.9h12.2v-16.9zm21.7 165.9h-17.2v23.9h17.2v-23.9zm-.8-24.4h-15.6v21.6h15.6v-21.6zm-.2-25.2h-15v20.8h15v-20.8zm-.3-24h-14.4v20h14.4v-20zm-.2-25.2h-13.9v19.3h13.9v-19.3zm-.3-22.8h-13.3v18.5h13.3v-18.5zm-.2-22.1h-12.7v17.7h12.7v-17.7zm-.3-22.1h-12.2v16.9h12.2v-16.9zm-.2-22.1h-11.6v16.1h11.6v-16.1zm-.2-20.9h-11.1v15.4h11.1v-15.4zm-.3-21h-10.5v14.6h10.5v-14.6zm-.2-19.1h-9.9v13.8h9.9v-13.8zm-.3-17.2h-9.4v13h9.4v-13zm-.2-17.1h-8.8v12.2h8.8v-12.2zm-.3-17.2h-8.2v11.4h8.2v-11.4zm-.2-17.1h-7.7v10.7h7.7v-10.7zm-.3-17.2h-7.1v9.9h7.1v-9.9zm-.2-17.1h-6.6v9.1h6.6v-9.1zm-.3-17.2h-6v8.3h6v-8.3zm-.2-17.1h-5.4v7.5h5.4v-7.5zm24.6 386.1h-17.2v23.9h17.2v-23.9zm-.8-24.4H1038v21.6h15.6v-21.6zm-.2-25.2h-15v20.8h15v-20.8zm-.3-24h-14.4v20h14.4v-20zm-.2-25.1H1039v19.3h13.9v-19.3zm-.2-22.9h-13.3v18.5h13.3v-18.5zm-.3-22.1h-12.7v17.7h12.7v-17.7zm-.2-22.1H1040v16.9h12.2v-16.9zm-.3-22.1h-11.6v16.1h11.6v-16.1zm-.2-20.9h-11.1v15.4h11.1v-15.4zm-.3-20.9h-10.5v14.6h10.5v-14.6zm-.2-19.2h-9.9v13.8h9.9v-13.8zm-.3-17.1h-9.4v13h9.4v-13zm-.2-17.2h-8.8v12.2h8.8v-12.2zm-.3-17.1h-8.2v11.4h8.2V495zm-.2-17.2h-7.7v10.7h7.7v-10.7zm-.3-17.1h-7.1v9.9h7.1v-9.9zm-.2-17.2h-6.6v9.1h6.6v-9.1zm-.3-17.1h-6v8.3h6v-8.3zm-.2-17.2h-5.4v7.5h5.4v-7.5zm-.3-17.1h-4.9v6.8h4.9v-6.8zm-.2-12.3h-4.3v6h4.3v-6zm-.3-12.2h-3.7v5.2h3.7v-5.2zm-.3-10.1h-3.2v4.4h3.2v-4.4zm-.2-8.1h-2.6v3.6h2.6v-3.6zm25.9 446h-17.2v23.9h17.2v-23.9zm-.8-24.4h-15.6v21.6h15.6V771zm-.2-25.2h-15v20.8h15v-20.8zm-.3-24h-14.4v20h14.4v-20zm-.2-25.2h-13.9v19.3h13.9v-19.3zm-.2-22.9h-13.3v18.5h13.3v-18.5zm-.3-22.1h-12.7v17.7h12.7v-17.7zm-.2-22.1h-12.2v16.9h12.2v-16.9zm-.3-22h-11.6v16.1h11.6v-16.1zm-.2-21H1060v15.4h11.1v-15.4zm-.3-20.9h-10.5v14.6h10.5v-14.6zm-.2-19.1h-9.9v13.8h9.9v-13.8zm-.3-17.2h-9.4v13h9.4v-13zm-.2-17.1h-8.8v12.2h8.8v-12.2zm-.3-17.2h-8.2v11.4h8.2V495zm-.2-17.1h-7.7v10.7h7.7v-10.7zm-.3-17.2h-7.1v9.9h7.1v-9.9zm-.2-17.2h-6.6v9.1h6.6v-9.1zm-.3-17.1h-6v8.3h6v-8.3zm-.2-17.2h-5.4v7.5h5.4v-7.5zm-.3-17.1h-4.9v6.8h4.9v-6.8zm-.2-12.3h-4.3v6h4.3v-6zm-.3-12.2h-3.7v5.2h3.7v-5.2zm-.3-10.1h-3.2v4.4h3.2v-4.4zm-.2-8.1h-2.6v3.6h2.6v-3.6zM-241.5 817.1h15.2v-23.9h-15.2v23.9zm0-26.8h14.3v-21.6h-14.3v21.6zm0-26h14.1v-20.8h-14.1v20.8zm.1-24.7h13.8v-20h-13.8v20zm0-26h13.5v-19.3h-13.5v19.3zm.1-23.6h13.2v-18.5h-13.2V690zm13-40.6H-241v17.7h12.7v-17.7zm-.3-22.1h-12.2v16.9h12.2v-16.9zm-.2-22.1h-11.6v16.1h11.6v-16.1zm-.3-20.9h-11.1v15.4h11.1v-15.4zm-.2-20.9h-10.5V578h10.5v-14.6zm-.2-19.2h-9.9V558h9.9v-13.8zm-.3-17.1h-9.4v13h9.4v-13zm-.3-17.2h-8.8v12.2h8.8v-12.2zm-.2-17.1h-8.2v11.4h8.2v-11.4zm-.3-17.2h-7.7v10.7h7.7v-10.7zm-.2-17.1h-7.1v9.9h7.1v-9.9zm23.9 334.7h-17.2v23.9h17.2v-23.9zm-.8-24.4h-15.6v21.6h15.6v-21.6zm-.2-25.2h-15v20.8h15v-20.8zm-.3-24h-14.4v20h14.4v-20zm-.2-25.2h-13.9v19.3h13.9v-19.3zm-.3-22.9H-222V690h13.3v-18.5zm-.2-22.1h-12.7v17.7h12.7v-17.7zm-.3-22h-12.2v16.9h12.2v-16.9zm-.2-22.1H-221v16.1h11.6v-16.1zm-.2-21h-11.1v15.4h11.1v-15.4zm-.3-20.9h-10.5V578h10.5v-14.6zm-.2-19.1h-9.9v13.8h9.9v-13.8zm-.3-17.2h-9.4v13h9.4v-13zm-.2-17.1h-8.8v12.2h8.8V510zm-.3-17.2h-8.2v11.4h8.2v-11.4zm-.2-17.1h-7.7v10.7h7.7v-10.7zm-.3-17.2h-7.1v9.9h7.1v-9.9zm-.2-17.2h-6.6v9.1h6.6v-9.1zm-.3-17.1h-6v8.3h6v-8.3zm-.2-17.2h-5.4v7.5h5.4V407zm-.3-17.1h-4.9v6.8h4.9v-6.8zm-.3-12.3h-4.3v6h4.3v-6zm25.2 415.6h-17.2v23.9h17.2v-23.9zm-.8-24.4h-15.6v21.6h15.6v-21.6zm-.2-25.2h-15v20.8h15v-20.8zm-.3-24h-14.4v20h14.4v-20zm-.2-25.2h-13.9v19.3h13.9v-19.3zm-.2-22.8h-13.3v18.5h13.3v-18.5zm-.3-22.1h-12.7v17.7h12.7v-17.7zm-.2-22.1h-12.2v16.9h12.2v-16.9zm-.3-22.1h-11.6v16.1h11.6v-16.1zm-.2-20.9h-11.1v15.4h11.1v-15.4zm-.3-21H-201V578h10.5v-14.6zm-.2-19.1h-9.9v13.8h9.9v-13.8zm-.3-17.2h-9.4v13h9.4v-13zm-.2-17.1h-8.8v12.2h8.8V510zm-.3-17.2h-8.2v11.4h8.2v-11.4zm-.2-17.1h-7.7v10.7h7.7v-10.7zm-.3-17.2h-7.1v9.9h7.1v-9.9zm-.2-17.1h-6.6v9.1h6.6v-9.1zm-.3-17.2h-6v8.3h6v-8.3zm-.2-17.1h-5.4v7.5h5.4v-7.5zm-.3-17.2h-4.9v6.8h4.9v-6.8zm-.2-12.3h-4.3v6h4.3v-6zm-.3-12.2h-3.7v5.2h3.7v-5.2zm-.3-10.1h-3.2v4.4h3.2v-4.4zm-.2-8.1h-2.6v3.6h2.6v-3.6zm25.9 446h-17.2v23.9h17.2v-23.9zm-.8-24.4h-15.6v21.6h15.6v-21.6zm-.2-25.2h-15v20.8h15v-20.8zm-.3-24h-14.4v20h14.4v-20zm-.2-25.1h-13.9v19.3h13.9v-19.3zm-.2-22.9h-13.3v18.5h13.3v-18.5zm-.3-22.1h-12.7v17.7h12.7v-17.7zm-.2-22.1h-12.2v16.9h12.2v-16.9zm-.3-22.1h-11.6v16.1h11.6v-16.1zm-.2-20.9h-11.1v15.4h11.1v-15.4zm-.3-20.9h-10.5v14.6h10.5v-14.6zm-.2-19.2h-9.9v13.8h9.9v-13.8zm-.3-17.1h-9.4v13h9.4v-13zm-.2-17.2h-8.8v12.2h8.8V510zm-.3-17.1h-8.2v11.4h8.2v-11.4zm-.2-17.2h-7.7v10.7h7.7v-10.7zm23.6 317.6h-17.2v23.9h17.2v-23.9zm-.8-24.4h-15.6v21.6h15.6v-21.6zm-.2-25.2h-15v20.8h15v-20.8zm-.2-24h-14.4v20h14.4v-20zm-.3-25.2h-13.9v19.3h13.9v-19.3zm-.2-22.9h-13.3v18.5h13.3v-18.5zm-.3-22.1h-12.7v17.7h12.7v-17.7zm-.2-22h-12.2v16.9h12.2v-16.9zm-.2-22.1h-11.6v16.1h11.6v-16.1zm-.3-21h-11.1v15.4h11.1v-15.4zm-.2-20.9h-10.5v14.6h10.5v-14.6zm-.3-19.1h-9.9v13.8h9.9v-13.8zm-.2-17.2h-9.4v13h9.4v-13zm-.3-17.1h-8.8v12.2h8.8v-12.2zm-.2-17.2h-8.2v11.4h8.2v-11.4zm-.3-17.1h-7.7v10.7h7.7v-10.7zm-.2-17.2h-7.1v9.9h7.1v-9.9zm-.3-17.2h-6.6v9.1h6.6v-9.1zm24.2 351.9h-17.2v23.9h17.2v-23.9zm-.8-24.4h-15.6v21.6h15.6v-21.6zm-.3-25.2h-15v20.8h15v-20.8zm-.2-24h-14.4v20h14.4v-20zm-.3-25.2h-13.9v19.3h13.9v-19.3zm-.2-22.8h-13.3v18.5h13.3v-18.5zm-.2-22.1h-12.7v17.7h12.7v-17.7zm-.3-22.1h-12.2v16.9h12.2v-16.9zm-.2-22.1h-11.6v16.1h11.6v-16.1zm-.3-20.9h-11.1v15.4h11.1v-15.4zm-.2-21h-10.5v14.6h10.5v-14.6zm-.3-19.1h-9.9v13.8h9.9v-13.8zm-.2-17.2h-9.4v13h9.4v-13zm-.3-17.1h-8.8v12.2h8.8v-12.2zm-.2-17.2h-8.2v11.4h8.2v-11.4zm-.3-17.1h-7.7v10.7h7.7v-10.7zm-.2-17.2h-7.1v9.9h7.1v-9.9zm-.3-17.1h-6.6v9.1h6.6v-9.1zm-.2-17.2h-6v8.3h6v-8.3zm-.3-17.1h-5.4v7.5h5.4v-7.5zm-.2-17.2h-4.9v6.8h4.9V390zm-.3-12.3h-4.3v6h4.3v-6zm25.2 415.6H-127v23.9h17.2v-23.9zm-.8-24.4h-15.6v21.6h15.6v-21.6zm-.3-25.2h-15v20.8h15v-20.8zm-.2-24h-14.4v20h14.4v-20zm-.2-25.1h-13.9v19.3h13.9v-19.3zm-.3-22.9h-13.3v18.5h13.3v-18.5zm-.2-22.1h-12.7v17.7h12.7v-17.7zm-.3-22.1h-12.2v16.9h12.2v-16.9zm-.2-22.1h-11.6v16.1h11.6v-16.1zm-.3-20.9h-11.1v15.4h11.1v-15.4zm-.2-20.9h-10.5v14.6h10.5v-14.6zm22.4 229.8h-17.2v23.9h17.2v-23.9zm-.8-24.4h-15.6v21.6h15.6V769zm-.3-25.2h-15v20.8h15v-20.8zm-.2-24h-14.4v20h14.4v-20zm-.2-25.2h-13.9v19.3h13.9v-19.3zm-.3-22.9h-13.3v18.5h13.3v-18.5zm-.2-22.1h-12.7v17.7h12.7v-17.7zm-.3-22h-12.2v16.9h12.2v-16.9zm-.2-22.1h-11.6v16.1h11.6v-16.1zm-.2-21h-11.1v15.4h11.1v-15.4zm-.3-20.9h-10.5v14.6h10.5v-14.6zm-.2-19.1h-9.9v13.8h9.9v-13.8zm-.3-17.2h-9.4v13h9.4v-13zm-.2-17.1h-8.8v12.2h8.8v-12.2zm-.3-17.2h-8.2v11.4h8.2V493zm-.2-17.1h-7.7v10.7h7.7v-10.7zM-71 793.4h-17.2v23.9H-71v-23.9zm-.8-24.4h-15.6v21.6h15.6V769zm-.2-25.2h-15v20.8h15v-20.8zm-.3-24h-14.4v20h14.4v-20zm-.2-25.2h-13.9v19.3h13.9v-19.3zm-.3-22.8h-13.3v18.5h13.3v-18.5zm-.2-22.1h-12.7v17.7H-73v-17.7zm-.2-22.1h-12.2v16.9h12.2v-16.9zm-.3-22.1h-11.6v16.1h11.6v-16.1zm-.2-20.9h-11.1V600h11.1v-15.4zm-.3-21h-10.5v14.6H-74v-14.6zm-.2-19.1h-9.9v13.8h9.9v-13.8zm-.3-17.2h-9.4v13h9.4v-13zm-.2-17.1h-8.8v12.2h8.8v-12.2zM-75 493h-8.2v11.4h8.2V493zm-.2-17.1h-7.7v10.7h7.7v-10.7zm-.3-17.2h-7.1v9.9h7.1v-9.9zm-.2-17.1h-6.6v9.1h6.6v-9.1zm-.3-17.2h-6v8.3h6v-8.3zm-.2-17.1h-5.4v7.5h5.4v-7.5zm24.6 386.1h-17.2v23.9h17.2v-23.9zm-.8-24.4H-68v21.6h15.6V769zm-.2-25.2h-15v20.8h15v-20.8zm-.3-24h-14.4v20h14.4v-20zm-.2-25.1H-67V714h13.9v-19.3zm-.2-22.9h-13.3v18.5h13.3v-18.5zm-.3-22.1h-12.7v17.7h12.7v-17.7zm-.2-22.1H-66v16.9h12.2v-16.9zm-.3-22.1h-11.6v16.1h11.6v-16.1zm-.2-20.9h-11.1V600h11.1v-15.4zm-.3-20.9h-10.5v14.6h10.5v-14.6zm-.2-19.2h-9.9v13.8h9.9v-13.8zm-.3-17.1h-9.4v13h9.4v-13zm-.2-17.2h-8.8v12.2h8.8v-12.2zm-.3-17.1h-8.2v11.4h8.2v-11.4zm-.2-17.2h-7.7v10.7h7.7v-10.7zm-.3-17.1h-7.1v9.9h7.1v-9.9zm-.2-17.2h-6.6v9.1h6.6v-9.1zm-.3-17.1h-6v8.3h6v-8.3zm-.2-17.2h-5.4v7.5h5.4v-7.5zm-.3-17.1H-62v6.8h4.9v-6.8zm-.2-12.3h-4.3v6h4.3v-6zm-.3-12.2h-3.7v5.2h3.7v-5.2zm-.3-10.1h-3.2v4.4h3.2v-4.4zm-.2-8.1h-2.6v3.6h2.6v-3.6zm25.9 446h-17.2v23.9h17.2v-23.9zm-.8-24.4h-15.6v21.6H-33v-21.6zm-.2-25.2h-15v20.8h15v-20.8zm-.2-24h-14.4v20h14.4v-20zm-.3-25.2h-13.9V714h13.9v-19.3zm-.2-22.9h-13.3v18.5h13.3v-18.5zm-.3-22.1h-12.7v17.7h12.7v-17.7zm-.2-22h-12.2v16.9h12.2v-16.9zm-.3-22.1h-11.6v16.1h11.6v-16.1zm-.2-21H-46V600h11.1v-15.4zm-.3-20.9h-10.5v14.6h10.5v-14.6zm-.2-19.1h-9.9v13.8h9.9v-13.8zm-.2-17.2H-45v13h9.4v-13zm22.8 266.1H-30v23.9h17.2v-23.9zm-.8-24.4h-15.6v21.6h15.6v-21.6zm-.2-25.2h-15v20.8h15v-20.8zm-.2-24h-14.4v20H-14v-20zm-.3-25.2h-13.9V714h13.9v-19.3zm-.2-22.8h-13.3v18.5h13.3v-18.5zm-.3-22.1h-12.7v17.7h12.7v-17.7zm-.2-22.1h-12.2v16.9H-15v-16.9zm-.2-22.1h-11.6v16.1h11.6v-16.1zm-.3-20.9h-11.1v15.4h11.1v-15.4zm-.2-21h-10.5v14.6h10.5v-14.6zm-.3-19.1h-9.9v13.8h9.9v-13.8zm-.2-17.2h-9.4v13h9.4v-13zm-.3-17.1h-8.8v12.2h8.8v-12.2zm-.2-17.2h-8.2v11.4h8.2v-11.4zM-17 476h-7.7v10.7h7.7V476zm-.2-17.2h-7.1v9.9h7.1v-9.9zm-.3-17.1h-6.6v9.1h6.6v-9.1zm-.2-17.2h-6v8.3h6v-8.3zm-.3-17.1h-5.4v7.5h5.4v-7.5zM6.7 793.5h-17.2v23.9H6.7v-23.9zm-.8-24.4H-9.7v21.6H5.9v-21.6zm-.3-25.2h-15v20.8h15v-20.8zm-.2-24H-9v20H5.4v-20zm-.3-25.1H-8.8v19.3H5.1v-19.3zm-.2-22.9H-8.4v18.5H4.9v-18.5zm-.2-22.1H-8v17.7H4.7v-17.7zm-.3-22.1H-7.8v16.9H4.4v-16.9zm-.2-22.1H-7.4v16.1H4.2v-16.1zm-.3-20.9H-7.2v15.4H3.9v-15.4zm-.2-20.9H-6.8v14.6H3.7v-14.6zm-.3-19.2h-9.9v13.8h9.9v-13.8zm-.2-17.1h-9.4v13h9.4v-13zm-.3-17.2h-8.8v12.2h8.8v-12.2zm-.2-17.1h-8.2v11.4h8.2v-11.4zM2.4 476h-7.7v10.7h7.7V476zm-.2-17.1h-7.1v9.9h7.1v-9.9zm-.3-17.2h-6.6v9.1h6.6v-9.1zm-.2-17.1h-6v8.3h6v-8.3zm-.3-17.2H-4v7.5h5.4v-7.5zm-.2-17.1h-4.9v6.8h4.9v-6.8zM.9 378h-4.3v6H.9v-6zm-.3-12.2h-3.7v5.2H.6v-5.2zm25.5 427.8H8.9v23.9h17.2v-23.9zm-.8-24.4H9.7v21.6h15.6v-21.6zM25 744H10v20.8h15V744zm-.2-24H10.4v20h14.4v-20zm-.2-25.2H10.7v19.3h13.9v-19.3zm-.3-22.9H11v18.5h13.3v-18.5zm-.2-22.1H11.4v17.7h12.7v-17.7zm21.4 143.8H28.3v23.9h17.2v-23.9zm-.8-24.4H29.1v21.6h15.6v-21.6zm-.3-25.2h-15v20.8h15V744zm-.2-24H29.8v20h14.4v-20zm-.2-25.2H30.1v19.3H44v-19.3zm-.3-22.8H30.4v18.5h13.3V672zm-.2-22.1H30.8v17.7h12.7v-17.7zm-.3-22.1H31v16.9h12.2v-16.9zm-.2-22.1H31.4v16.1H43v-16.1zm-.2-20.9H31.7v15.4h11.1v-15.4zm-.3-21H32v14.6h10.5v-14.6zm-.2-19.1h-9.9v13.8h9.9v-13.8zm22.6 248.9H47.7v23.9h17.2v-23.9zm-.8-24.4H48.5v21.6h15.6v-21.6zm-.2-25.2h-15v20.8h15V744zm-.3-24H49.2v20h14.4v-20zm-.2-25.1H49.5v19.3h13.9v-19.3zm-.3-22.9H49.8v18.5h13.3V672zm-.2-22.1H50.2v17.7h12.7v-17.7zm-.2-22.1H50.5v16.9h12.2v-16.9zm-.3-22.1H50.8v16.1h11.6v-16.1zm-.2-20.9H51.1v15.4h11.1v-15.4zm-.3-20.9H51.4v14.6h10.5v-14.6zm-.2-19.2h-9.9v13.8h9.9v-13.8zm-.3-17.1H52v13h9.4v-13zm-.2-17.2h-8.8v12.2h8.8v-12.2zm-.3-17.1h-8.2v11.4h8.2v-11.4zm-.2-17.2H53v10.7h7.7v-10.7zm-.3-17.1h-7.1v9.9h7.1V459zm-.2-17.2h-6.6v9.1h6.6v-9.1zm-.3-17.1h-6v8.3h6v-8.3zm-.2-17.2h-5.4v7.5h5.4v-7.5zm-.3-17.1h-4.9v6.8h4.9v-6.8zm24.9 403.3H67.1v23.9h17.2v-23.9zm-.8-24.4H67.9v21.6h15.6v-21.6zm-.2-25.2h-15v20.8h15v-20.8zm-.3-24H68.6v20H83v-20zm-.2-25.2H68.9v19.3h13.9v-19.3zm-.2-22.9H69.3v18.5h13.3V672zm-.3-22.1H69.6v17.7h12.7v-17.7zm-.2-22H69.9v16.9h12.2v-16.9zm-.3-22.1H70.2v16.1h11.6v-16.1zm-.2-21H70.5v15.4h11.1v-15.4zm-.3-20.9H70.8v14.6h10.5v-14.6zm-.2-19.1h-9.9v13.8h9.9v-13.8zm-.3-17.2h-9.4v13h9.4v-13zm22.9 266.1H86.5v23.9h17.2v-23.9zm-.8-24.4H87.3v21.6h15.6v-21.6zm-.2-25.2h-15v20.8h15v-20.8zm-.2-24H88.1v20h14.4v-20zm-.3-25.2H88.3v19.3h13.9v-19.3zm-.2-22.8H88.7v18.5H102v-18.5zm-.3-22.1H89v17.7h12.7V650zm-.2-22.1H89.3v16.9h12.2v-16.9zm-.3-22.1H89.6v16.1h11.6v-16.1zm-.2-20.9H89.9v15.4H101v-15.4zm-.2-21H90.3v14.6h10.5v-14.6zm-.3-19.1h-9.9v13.8h9.9v-13.8zm-.2-17.2h-9.4v13h9.4v-13zm-.3-17.1h-8.8v12.2h8.8v-12.2zm-.2-17.2h-8.2v11.4h8.2v-11.4zm-.3-17.1h-7.7v10.7h7.7v-10.7zm-.3-17.2h-7.1v9.9h7.1V459zm-.2-17.1h-6.6v9.1H99v-9.1zm24.1 351.8h-17.2v23.9h17.2v-23.9zm-.8-24.4h-15.6v21.6h15.6v-21.6zm-.2-25.2h-15v20.8h15v-20.8zm-.2-24h-14.4v20h14.4v-20zm-.3-25.1h-13.9v19.3h13.9V695zm-.2-22.9h-13.3v18.5h13.3v-18.5zm-.3-22.1h-12.7v17.7h12.7V650zm-.2-22.1h-12.2v16.9h12.2v-16.9zm-.2-22.1h-11.6v16.1h11.6v-16.1zm-.3-20.9h-11.1v15.4h11.1v-15.4zm-.2-20.9h-10.5v14.6h10.5V564zm-.3-19.2H110v13.8h9.9v-13.8zm-.2-17.1h-9.4v13h9.4v-13zm-.3-17.2h-8.8v12.2h8.8v-12.2zm-.2-17.1H111v11.4h8.2v-11.4zm-.3-17.2h-7.7v10.7h7.7v-10.7zm-.2-17.1h-7.1v9.9h7.1v-9.9zm-.3-17.2h-6.6v9.1h6.6v-9.1zm-.2-17.1h-6v8.3h6v-8.3zm-.3-17.2h-5.4v7.5h5.4v-7.5zm-.2-17.1h-4.9v6.8h4.9v-6.8zm24.9 403.3h-17.2v23.9h17.2v-23.9zm-.8-24.4h-15.6V791h15.6v-21.6zm-.3-25.2h-15V765h15v-20.8zm-.2-24h-14.4v20h14.4v-20zM141 695h-13.9v19.3H141V695zm-.2-22.9h-13.3v18.5h13.3v-18.5zm-.2-22.1h-12.7v17.7h12.7V650zm-.3-22h-12.2v16.9h12.2V628zm-.2-22.1h-11.6V622h11.6v-16.1zm-.3-21h-11.1v15.4h11.1v-15.4zm-.2-20.9h-10.5v14.6h10.5V564zm-.3-19.1h-9.9v13.8h9.9v-13.8zm-.2-17.2h-9.4v13h9.4v-13zm-.3-17.1H130v12.2h8.8v-12.2zm-.2-17.2h-8.2v11.4h8.2v-11.4zm-.3-17.1h-7.7V487h7.7v-10.7zm-.2-17.2H131v9.9h7.1v-9.9zm-.3-17.2h-6.6v9.1h6.6v-9.1zm-.2-17.1h-6v8.3h6v-8.3zm-.3-17.2h-5.4v7.5h5.4v-7.5zm-.2-17.1h-4.9v6.8h4.9v-6.8zm-.3-12.3h-4.3v6h4.3v-6zm-.3-12.2h-3.7v5.2h3.7V366zm-.2-10.1h-3.2v4.4h3.2v-4.4zm-.3-8.1h-2.6v3.6h2.6v-3.6zm26 446h-17.2v23.9H162v-23.9zm-.8-24.4h-15.6V791h15.6v-21.6zm-.3-25.2h-15V765h15v-20.8zm-.2-24h-14.4v20h14.4v-20zm-.2-25.2h-13.9v19.3h13.9V695zm-.3-22.8h-13.3v18.5h13.3v-18.5zm-.2-22.1h-12.7v17.7H160v-17.7zm-.3-22.1h-12.2v16.9h12.2V628zm-.2-22.1h-11.6V622h11.6v-16.1zm-.3-20.9h-11.1v15.4h11.1V585zm-.2-21h-10.5v14.6H159V564zm-.2-19.1h-9.9v13.8h9.9v-13.8zm-.3-17.2h-9.4v13h9.4v-13zm-.3-17.1h-8.8v12.2h8.8v-12.2zm-.2-17.2h-8.2v11.4h8.2v-11.4zm-.3-17.1H150V487h7.7v-10.7zm-.2-17.2h-7.1v9.9h7.1v-9.9zm-.3-17.1h-6.6v9.1h6.6V442zm-.2-17.2h-6v8.3h6v-8.3zm24.4 369h-17.2v23.9h17.2v-23.9zm-.8-24.4H165V791h15.6v-21.6zm-.2-25.2h-15V765h15v-20.8zm-.3-24h-14.4v20h14.4v-20zm-.2-25.1H166v19.3h13.9v-19.3zm-.3-22.9h-13.3v18.5h13.3v-18.5zm-.2-22.1h-12.7v17.7h12.7v-17.7zm-.3-22.1h-12.2v16.9h12.2V628zm-.2-22.1h-11.6V622h11.6v-16.1zm-.2-20.9h-11.1v15.4h11.1V585zm-.3-20.9h-10.5v14.6h10.5v-14.6zm-.2-19.2h-9.9v13.8h9.9v-13.8zm-.3-17.1h-9.4v13h9.4v-13zm-.2-17.2h-8.8v12.2h8.8v-12.2zm-.3-17.1h-8.2v11.4h8.2v-11.4zm23.4 300.4h-17.2v23.9h17.2v-23.9zm-.8-24.4h-15.6v21.6H200v-21.6zm-.2-25.2h-15v20.8h15v-20.8zm-.3-24h-14.4v20h14.4v-20zm-.2-25.2h-13.9v19.3h13.9v-19.3zm-.3-22.9h-13.3v18.5H199v-18.5zm-.2-22.1h-12.7v17.7h12.7v-17.7zm-.2-22h-12.2V645h12.2v-16.9zm-.3-22.1h-11.6v16.1h11.6V606zm-.2-21H187v15.4h11.1V585zm-.3-20.9h-10.5v14.6h10.5v-14.6zm-.2-19.1h-9.9v13.8h9.9V545zm-.3-17.2h-9.4v13h9.4v-13zm-.2-17.1h-8.8v12.2h8.8v-12.2zm-.3-17.2h-8.2v11.4h8.2v-11.4zm-.2-17.1h-7.7v10.7h7.7v-10.7zm-.3-17.2h-7.1v9.9h7.1v-9.9zm-.2-17.2h-6.6v9.1h6.6V442zm-.3-17.1h-6v8.3h6v-8.3zm-.2-17.2h-5.4v7.5h5.4v-7.5zm24.6 386.2H203v23.9h17.2v-23.9zm-.8-24.4h-15.6v21.6h15.6v-21.6zm-.2-25.2h-15v20.8h15v-20.8zm-.3-24h-14.4v20h14.4v-20zm-.2-25.2h-13.9v19.3h13.9v-19.3zm-.2-22.8h-13.3v18.5h13.3v-18.5zm-.3-22.1h-12.7v17.7h12.7v-17.7zm-.2-22.1h-12.2V645H218v-16.9zm-.3-22.1h-11.6v16.1h11.6V606zm-.2-20.9h-11.1v15.4h11.1v-15.4zm-.3-21h-10.5v14.6h10.5v-14.6zM217 545h-9.9v13.8h9.9V545zm-.3-17.2h-9.4v13h9.4v-13zm-.2-17.1h-8.8v12.2h8.8v-12.2zm-.3-17.2H208v11.4h8.2v-11.4zm-.2-17.1h-7.7v10.7h7.7v-10.7zm-.3-17.2h-7.1v9.9h7.1v-9.9zm-.2-17.1h-6.6v9.1h6.6v-9.1zm-.3-17.2h-6v8.3h6v-8.3zm-.2-17.1h-5.4v7.5h5.4v-7.5zm-.3-17.2h-4.9v6.8h4.9v-6.8zm-.2-12.3h-4.3v6h4.3v-6zm-.3-12.2h-3.7v5.2h3.7v-5.2zm-.3-10.1h-3.2v4.4h3.2V356zm-.2-8.1h-2.6v3.6h2.6v-3.6zm25.9 446h-17.2v23.9h17.2v-23.9zm-.8-24.4h-15.6v21.6h15.6v-21.6zm-.2-25.2h-15v20.8h15v-20.8zm-.2-24H224v20h14.4v-20zm-.3-25.1h-13.9v19.3h13.9v-19.3zm-.2-22.9h-13.3v18.5h13.3v-18.5zm-.3-22.1h-12.7v17.7h12.7v-17.7zm-.2-22.1h-12.2V645h12.2v-16.9zm-.3-22.1h-11.6v16.1h11.6V606zm-.2-20.9h-11.1v15.4h11.1v-15.4zm-.2-20.9h-10.5v14.6h10.5v-14.6zM259.1 794h-17.2v23.9h17.2V794zm-.8-24.4h-15.6v21.6h15.6v-21.6zm-.3-25.2h-15v20.8h15v-20.8zm-.2-24h-14.4v20h14.4v-20zm-.3-25.2h-13.9v19.3h13.9v-19.3zm-.2-22.9H244v18.5h13.3v-18.5zm-.2-22.1h-12.7v17.7h12.7v-17.7zm-.3-22h-12.2v16.9h12.2v-16.9zm-.2-22.1H245v16.1h11.6v-16.1zm-.3-21h-11.1v15.4h11.1v-15.4zm-.2-20.9h-10.5v14.6h10.5v-14.6zm-.3-19.1h-9.9v13.8h9.9v-13.8zm-.2-17.2h-9.4v13h9.4v-13zm-.3-17.1h-8.8V523h8.8v-12.2zM278.5 794h-17.2v23.9h17.2V794zm-.8-24.4h-15.6v21.6h15.6v-21.6zm-.3-25.2h-15v20.8h15v-20.8zm-.2-24h-14.4v20h14.4v-20zm-.2-25.2h-13.9v19.3H277v-19.3zm-.3-22.8h-13.3v18.5h13.3v-18.5zm-.2-22.1h-12.7V668h12.7v-17.7zm-.3-22.1H264v16.9h12.2v-16.9zm-.2-22.1h-11.6v16.1H276v-16.1zm-.3-20.9h-11.1v15.4h11.1v-15.4zm-.2-21H265v14.6h10.5v-14.6zm-.3-19.1h-9.9v13.8h9.9v-13.8zm-.2-17.2h-9.4v13h9.4v-13zm-.3-17.1h-8.8V523h8.8v-12.2zm-.2-17.2h-8.2V505h8.2v-11.4zm-.3-17.1h-7.7v10.7h7.7v-10.7zm-.2-17.2h-7.1v9.9h7.1v-9.9zm-.3-17.1h-6.6v9.1h6.6v-9.1zm-.2-17.2h-6v8.3h6V425zm-.3-17.1h-5.4v7.5h5.4v-7.5zm-.2-17.2h-4.9v6.8h4.9v-6.8zM297.9 794h-17.2v23.9h17.2V794zm-.8-24.4h-15.6v21.6h15.6v-21.6zm-.3-25.2h-15v20.8h15v-20.8zm-.2-24h-14.4v20h14.4v-20zm-.2-25.1h-13.9v19.3h13.9v-19.3zm-.3-22.9h-13.3v18.5h13.3v-18.5zm-.2-22.1h-12.7V668h12.7v-17.7zm-.3-22.1h-12.2v16.9h12.2v-16.9zm-.2-22.1h-11.6v16.1h11.6v-16.1zm-.3-20.9H284v15.4h11.1v-15.4zm-.2-20.9h-10.5v14.6h10.5v-14.6zm-.2-19.2h-9.9v13.8h9.9v-13.8zm-.3-17.1H285v13h9.4v-13zm-.2-17.2h-8.8V523h8.8v-12.2zm-.3-17.1h-8.2v11.4h8.2v-11.4zm23.4 300.4h-17.2V818h17.2v-23.9zm-.8-24.4h-15.6v21.6h15.6v-21.6zm-.2-25.2h-15v20.8h15v-20.8zm-.3-24h-14.4v20H316v-20zm-.2-25.2h-13.9v19.3h13.9v-19.3zm-.3-22.9h-13.3v18.5h13.3v-18.5zm-.2-22.1h-12.7V668h12.7v-17.7zm-.3-22h-12.2v16.9H315v-16.9zm-.2-22.1h-11.6v16.1h11.6v-16.1zm-.2-21h-11.1v15.4h11.1v-15.4zm-.3-20.9h-10.5v14.6h10.5v-14.6zm-.2-19.1h-9.9V559h9.9v-13.8zm-.3-17.2h-9.4v13h9.4v-13zm-.2-17.1h-8.8v12.2h8.8v-12.2zm-.3-17.2h-8.2v11.4h8.2v-11.4zm-.2-17.1h-7.7v10.7h7.7v-10.7zm-.3-17.2h-7.1v9.9h7.1v-9.9zm-.2-17.2H306v9.1h6.6v-9.1zm-.3-17.1h-6v8.3h6v-8.3zm24.4 369h-17.2V818h17.2v-23.9zm-.8-24.4h-15.6v21.6h15.6v-21.6zm-.2-25.2h-15v20.8h15v-20.8zm-.3-24H321v20h14.4v-20zm-.2-25.2h-13.9v19.3h13.9v-19.3zm-.2-22.8h-13.3V691H335v-18.5zm-.3-22.1H322v17.7h12.7v-17.7zm-.2-22.1h-12.2v16.9h12.2v-16.9zm21.6 165.8h-17.2V818h17.2v-23.9zm-.8-24.4h-15.6v21.6h15.6v-21.6zm-.2-25.2h-15v20.8h15v-20.8zm-.3-24h-14.4v20h14.4v-20zm-.2-25.1h-13.9v19.3h13.9v-19.3zm-.2-22.9h-13.3V691h13.3v-18.5zm-.3-22.1h-12.7v17.7h12.7v-17.7zm-.2-22.1h-12.2v16.9h12.2v-16.9zm-.3-22.1H342v16.1h11.6v-16.1zm-.2-20.9h-11.1v15.4h11.1v-15.4zm-.3-20.9h-10.5V579h10.5v-14.6zm-.2-19.2H343V559h9.9v-13.8zm-.3-17.1h-9.4v13h9.4v-13zm-.2-17.2h-8.8v12.2h8.8v-12.2zm-.3-17.1h-8.2v11.4h8.2v-11.4zm-.2-17.2h-7.7v10.7h7.7v-10.7zm-.3-17.1h-7.1v9.9h7.1v-9.9zm-.2-17.2h-6.6v9.1h6.6v-9.1zm-.3-17.1h-6v8.3h6v-8.3zm-.2-17.2h-5.4v7.5h5.4V408zm24.6 386.2h-17.2v23.9h17.2v-23.9zm-.8-24.4h-15.6v21.6h15.6v-21.6zm-.2-25.2h-15v20.8h15v-20.8zm-.2-24h-14.4v20h14.4v-20zm-.3-25.2h-13.9v19.3H374v-19.3zm-.2-22.9h-13.3V691h13.3v-18.5zm-.3-22.1h-12.7v17.7h12.7v-17.7zm-.2-22h-12.2v16.9h12.2v-16.9zm-.2-22.1h-11.6v16.1h11.6v-16.1zm-.3-21h-11.1v15.4h11.1v-15.4zm-.2-20.9h-10.5V579h10.5v-14.6zm-.3-19.1h-9.9v13.8h9.9v-13.8zm-.2-17.2h-9.4v13h9.4v-13zm-.3-17.1H363v12.2h8.8V511zm-.2-17.2h-8.2v11.4h8.2v-11.4zm-.3-17.1h-7.7v10.7h7.7v-10.7zm-.2-17.2H364v9.9h7.1v-9.9zm-.3-17.2h-6.6v9.1h6.6v-9.1zm-.2-17.1h-6v8.3h6v-8.3zm-.3-17.2h-5.4v7.5h5.4V408zm-.3-17.1h-4.9v6.8h4.9v-6.8zm-.2-12.3h-4.3v6h4.3v-6zm-.3-12.2h-3.7v5.2h3.7v-5.2zm-.2-10.1h-3.2v4.4h3.2v-4.4zm-.3-8.1h-2.6v3.6h2.6v-3.6zm26 446h-17.2v23.9H395v-23.9zm-.8-24.4h-15.6v21.6h15.6v-21.6zm-.3-25.2h-15v20.8h15v-20.8zm-.2-24h-14.4v20h14.4v-20zm-.3-25.2h-13.9v19.3h13.9v-19.3zm-.2-22.8h-13.3v18.5h13.3v-18.5zm-.2-22.1h-12.7v17.7H393v-17.7zm-.3-22.1h-12.2v16.9h12.2v-16.9zm-.2-22.1h-11.6v16.1h11.6v-16.1zm-.3-20.9h-11.1v15.4h11.1v-15.4zm-.2-21h-10.5V579H392v-14.6zm-.3-19.1h-9.9v13.8h9.9v-13.8zm-.2-17.2h-9.4v13h9.4v-13zm-.3-17.1h-8.8v12.2h8.8V511zm-.2-17.2h-8.2v11.4h8.2v-11.4zm-.3-17.1H383v10.7h7.7v-10.7zm-.2-17.2h-7.1v9.9h7.1v-9.9zm-.3-17.1h-6.6v9.1h6.6v-9.1zm-.2-17.2h-6v8.3h6v-8.3zm-.3-17.1h-5.4v7.5h5.4v-7.5zm-.2-17.2h-4.9v6.8h4.9v-6.8zm-.3-12.3h-4.3v6h4.3v-6zm-.3-12.2h-3.7v5.2h3.7v-5.2zm-.2-10.1h-3.2v4.4h3.2v-4.4zm-.3-8.1h-2.6v3.6h2.6v-3.6z"/><linearGradient id="XMLID_2633_" gradientUnits="userSpaceOnUse" x1="-1245.46" y1="716.061" x2="69.868" y2="716.061" gradientTransform="rotate(-180 573.296 649.937)"><stop offset="0" stop-color="#4e4e4e"/><stop offset=".205" stop-color="#989898"/><stop offset=".337" stop-color="#e1e1e1"/><stop offset=".532" stop-color="#bdbdbd"/><stop offset=".746" stop-color="#b3b3b3"/><stop offset="1" stop-color="#707070"/></linearGradient><path id="XMLID_1_" class="st1" d="M1731.7 820.7h-17.2v-23.9h17.2v23.9zm-.8-48.3h-15.6V794h15.6v-21.6zm-.2-25.2h-15V768h15v-20.8zm-.3-24H1716v20h14.4v-20zm-.2-25.2h-13.9v19.3h13.9V698zm-.3-22.8h-13.3v18.5h13.3v-18.5zm-.2-22.1H1717v17.7h12.7v-17.7zm-.2-22.1h-12.2v16.9h12.2V631zm-.3-22.1h-11.6V625h11.6v-16.1zm-.2-20.9h-11.1v15.4h11.1V588zm-.3-21h-10.5v14.6h10.5V567zm-.2-19.1h-9.9v13.8h9.9v-13.8zm-.3-17.2h-9.4v13h9.4v-13zm-.2-17.1h-8.8v12.2h8.8v-12.2zm-.3-17.2h-8.2v11.4h8.2v-11.4zm-.2-17.1h-7.7V490h7.7v-10.7zm-.3-17.2h-7.1v9.9h7.1v-9.9zm-.2-17.1h-6.6v9.1h6.6V445zm24.1 351.8h-17.2v23.9h17.2v-23.9zm-.8-24.4h-15.6V794h15.6v-21.6zm-.2-25.2h-15V768h15v-20.8zm-.3-24h-14.4v20h14.4v-20zm-.2-25.1h-13.9v19.3h13.9v-19.3zm-.2-22.9h-13.3v18.5h13.3v-18.5zm-.3-22.1h-12.7v17.7h12.7v-17.7zm-.2-22.1h-12.2v16.9h12.2V631zm-.3-22.1H1737V625h11.6v-16.1zm-.2-20.9h-11.1v15.4h11.1V588zm-.3-20.9h-10.5v14.6h10.5v-14.6zm-.2-19.2h-9.9v13.8h9.9v-13.8zm-.3-17.1h-9.4v13h9.4v-13zm-.2-17.2h-8.8v12.2h8.8v-12.2zm-.3-17.1h-8.2v11.4h8.2v-11.4zm-.2-17.2h-7.7V490h7.7v-10.7zm-.3-17.1h-7.1v9.9h7.1v-9.9zm-.2-17.2h-6.6v9.1h6.6V445zm-.3-17.1h-6v8.3h6v-8.3zm-.2-17.2h-5.4v7.5h5.4v-7.5zm-.3-17.1h-4.9v6.8h4.9v-6.8zm24.9 403.3h-17.2v23.9h17.2v-23.9zm-.8-24.4h-15.6v21.6h15.6v-21.6zm-.2-25.2h-15v20.8h15v-20.8zm-.3-24h-14.4v20h14.4v-20zm-.2-25.2h-13.9v19.3h13.9v-19.3zm-.2-22.9h-13.3v18.5h13.3v-18.5zm-.3-22.1h-12.7v17.7h12.7v-17.7zm-.2-22h-12.2V648h12.2v-16.9zm-.3-22.1h-11.6v16.1h11.6V609zm-.2-21h-11.1v15.4h11.1V588zm-.3-20.9H1757v14.6h10.5v-14.6zm-.2-19.1h-9.9v13.8h9.9V548zm-.3-17.2h-9.4v13h9.4v-13zm-.2-17.1h-8.8v12.2h8.8v-12.2zm-.3-17.2h-8.2v11.4h8.2v-11.4zm-.2-17.1h-7.7v10.7h7.7v-10.7zm-.3-17.2h-7.1v9.9h7.1v-9.9zm23.9 334.7h-17.2v23.9h17.2v-23.9zm-.8-24.4h-15.6v21.6h15.6v-21.6zm-.2-25.2h-15v20.8h15v-20.8zm-.2-24h-14.4v20h14.4v-20zm-.3-25.2h-13.9v19.3h13.9v-19.3zm-.2-22.8h-13.3v18.5h13.3v-18.5zm-.3-22.1h-12.7v17.7h12.7v-17.7zm-.2-22.1h-12.2V648h12.2v-16.9zm-.2-22.1h-11.6v16.1h11.6V609zm-.3-20.9h-11.1v15.4h11.1v-15.4zm-.2-21h-10.5v14.6h10.5v-14.6zm-.3-19.1h-9.9v13.8h9.9V548zm-.2-17.2h-9.4v13h9.4v-13zm-.3-17.1h-8.8v12.2h8.8v-12.2zm-.2-17.2h-8.2v11.4h8.2v-11.4zm-.3-17.1h-7.7v10.7h7.7v-10.7zm-.2-17.2h-7.1v9.9h7.1v-9.9zm-.3-17.1h-6.6v9.1h6.6v-9.1zm-.3-17.2h-6v8.3h6v-8.3zm-.2-17.1h-5.4v7.5h5.4v-7.5zm-.3-17.2h-4.9v6.8h4.9v-6.8zm-.2-12.3h-4.3v6h4.3v-6zm25.2 415.6h-17.2v23.9h17.2v-23.9zm-.8-24.4H1793v21.6h15.6v-21.6zm-.3-25.2h-15v20.8h15v-20.8zm-.2-24h-14.4v20h14.4v-20zm-.3-25.1h-13.9v19.3h13.9v-19.3zm-.2-22.9h-13.3v18.5h13.3v-18.5zm-.2-22.1h-12.7v17.7h12.7v-17.7zm-.3-22.1h-12.2V648h12.2v-16.9zm-.2-22.1h-11.6v16.1h11.6V609zm-.3-20.9h-11.1v15.4h11.1v-15.4zm-.2-20.9h-10.5v14.6h10.5v-14.6zm-.3-19.2h-9.9v13.8h9.9V548zm-.2-17.1h-9.4v13h9.4v-13zm-.3-17.2h-8.8v12.2h8.8v-12.2zm-.2-17.1h-8.2V508h8.2v-11.4zm-.3-17.2h-7.7v10.7h7.7v-10.7zm-.2-17.1h-7.1v9.9h7.1v-9.9zm-.3-17.2h-6.6v9.1h6.6v-9.1zm-.2-17.1h-6v8.3h6V428zm-.3-17.2h-5.4v7.5h5.4v-7.5zm-.2-17.1h-4.9v6.8h4.9v-6.8zm-.3-12.3h-4.3v6h4.3v-6zm-.3-12.2h-3.7v5.2h3.7v-5.2zm-.2-10.1h-3.2v4.4h3.2v-4.4zm-.3-8.1h-2.6v3.6h2.6V351zm26 446h-17.2v23.9h17.2V797zm-.8-24.4h-15.6v21.6h15.6v-21.6zm-.3-25.2h-15v20.8h15v-20.8zm-.2-24h-14.4v20h14.4v-20zm-.2-25.2h-13.9v19.3h13.9v-19.3zm-.3-22.9h-13.3v18.5h13.3v-18.5zm-.2-22.1h-12.7v17.7h12.7v-17.7zm-.3-22h-12.2v16.9h12.2v-16.9zm-.2-22.1h-11.6v16.1h11.6v-16.1zm-.3-21h-11.1v15.4h11.1v-15.4zm-.2-20.9h-10.5v14.6h10.5v-14.6zm-.3-19.1h-9.9v13.8h9.9v-13.8zm-.2-17.2h-9.4v13h9.4v-13zm-.3-17.1h-8.8V526h8.8v-12.2zm-.2-17.2h-8.2V508h8.2v-11.4zm-.3-17.1h-7.7v10.7h7.7v-10.7zm23.7 317.5H1831v23.9h17.2V797zm-.8-24.4h-15.6v21.6h15.6v-21.6zm-.3-25.2h-15v20.8h15v-20.8zm-.2-24h-14.4v20h14.4v-20zm-.2-25.2h-13.9v19.3h13.9v-19.3zm-.3-22.8h-13.3v18.5h13.3v-18.5zm-.2-22.1h-12.7V671h12.7v-17.7zm-.3-22.1h-12.2v16.9h12.2v-16.9zm-.2-22.1h-11.6v16.1h11.6v-16.1zm-.2-20.9h-11.1v15.4h11.1v-15.4zm-.3-21h-10.5v14.6h10.5v-14.6zm-.2-19.1h-9.9v13.8h9.9v-13.8zm-.3-17.2h-9.4v13h9.4v-13zm-.2-17.1h-8.8V526h8.8v-12.2zm-.3-17.2h-8.2V508h8.2v-11.4zm-.2-17.1h-7.7v10.7h7.7v-10.7zm-.3-17.2h-7.1v9.9h7.1v-9.9zm-.3-17.1h-6.6v9.1h6.6v-9.1zm24.2 351.8h-17.2v23.9h17.2V797zm-.8-24.4h-15.6v21.6h15.6v-21.6zm-.2-25.2h-15v20.8h15v-20.8zm-.3-24h-14.4v20h14.4v-20zm-.2-25.1h-13.9v19.3h13.9v-19.3zm-.3-22.9h-13.3v18.5h13.3v-18.5zm-.2-22.1h-12.7V671h12.7v-17.7zm-.2-22.1h-12.2v16.9h12.2v-16.9zm-.3-22.1h-11.6v16.1h11.6v-16.1zm-.2-20.9h-11.1v15.4h11.1v-15.4zm-.3-20.9h-10.5v14.6h10.5v-14.6zm-.2-19.2h-9.9v13.8h9.9v-13.8zm-.3-17.1h-9.4v13h9.4v-13zm-.2-17.2h-8.8V526h8.8v-12.2zm-.3-17.1h-8.2v11.4h8.2v-11.4zm-.2-17.2h-7.7v10.7h7.7v-10.7zm-.3-17.1h-7.1v9.9h7.1v-9.9zm-.2-17.2h-6.6v9.1h6.6v-9.1zm-.3-17.1h-6v8.3h6v-8.3zm-.2-17.2h-5.4v7.5h5.4v-7.5zm-.3-17.1h-4.9v6.8h4.9v-6.8zm-.3-12.3h-4.3v6h4.3v-6zm25.2 415.6h-17.2V821h17.2v-23.9zm-.8-24.4h-15.6v21.6h15.6v-21.6zm-.2-25.2h-15v20.8h15v-20.8zm-.3-24h-14.4v20h14.4v-20zm-.2-25.2h-13.9v19.3h13.9v-19.3zm-.2-22.9H1872v18.5h13.3v-18.5zm-.3-22.1h-12.7V671h12.7v-17.7zm-.2-22h-12.2v16.9h12.2v-16.9zm-.3-22.1h-11.6v16.1h11.6v-16.1zm-.2-21h-11.1v15.4h11.1v-15.4zm-.3-20.9h-10.5v14.6h10.5v-14.6zm22.4 229.8h-17.2V821h17.2v-23.9zm-.8-24.4H1890v21.6h15.6v-21.6zm-.2-25.2h-15v20.8h15v-20.8zm-.2-24h-14.4v20h14.4v-20zm-.3-25.2H1891v19.3h13.9v-19.3zm-.2-22.8h-13.3V694h13.3v-18.5zm-.3-22.1h-12.7v17.7h12.7v-17.7zm-.2-22.1H1892v16.9h12.2v-16.9zm-.3-22.1h-11.6v16.1h11.6v-16.1zm-.2-20.9h-11.1v15.4h11.1v-15.4zm-.2-21H1893v14.6h10.5v-14.6zm-.3-19.1h-9.9V562h9.9v-13.8zm-.2-17.2h-9.4v13h9.4v-13zm-.3-17.1h-8.8v12.2h8.8v-12.2zm-.3-17.2h-8.2v11.4h8.2v-11.4zm-.2-17.1h-7.7v10.7h7.7v-10.7zm23.6 317.5h-17.2V821h17.2v-23.9zm-.8-24.4h-15.6v21.6h15.6v-21.6zm-.2-25.2h-15v20.8h15v-20.8zm-.2-24h-14.4v20h14.4v-20zm-.3-25.1h-13.9v19.3h13.9v-19.3zm-.2-22.9h-13.3V694h13.3v-18.5zm-.3-22.1h-12.7v17.7h12.7v-17.7zm-.2-22.1h-12.2v16.9h12.2v-16.9zm-.2-22.1h-11.6v16.1h11.6v-16.1zm-.3-20.9H1912v15.4h11.1v-15.4zm-.2-20.9h-10.5V582h10.5v-14.6zm-.3-19.2h-9.9V562h9.9v-13.8zm-.2-17.1h-9.4v13h9.4v-13zm-.3-17.2h-8.8v12.2h8.8v-12.2zm-.2-17.1h-8.2v11.4h8.2v-11.4zm-.3-17.2h-7.7v10.7h7.7v-10.7zm-.2-17.1h-7.1v9.9h7.1v-9.9zm-.3-17.2h-6.6v9.1h6.6v-9.1zm-.2-17.1h-6v8.3h6v-8.3zm-.3-17.2h-5.4v7.5h5.4V411zm24.7 386.2h-17.2v23.9h17.2v-23.9zm-.8-24.4h-15.6v21.6h15.6v-21.6zm-.3-25.2h-15v20.8h15v-20.8zm-.2-24h-14.4v20h14.4v-20zm-.3-25.2h-13.9v19.3h13.9v-19.3zm-.2-22.9h-13.3V694h13.3v-18.5zm-.2-22.1h-12.7v17.7h12.7v-17.7zm-.3-22h-12.2v16.9h12.2v-16.9zm-.2-22.1h-11.6v16.1h11.6v-16.1zm-.3-21h-11.1v15.4h11.1v-15.4zm-.2-20.9h-10.5V582h10.5v-14.6zm-.3-19.1h-9.9v13.8h9.9v-13.8zm-.2-17.2h-9.4v13h9.4v-13zm-.3-17.1h-8.8v12.2h8.8V514zm-.2-17.2h-8.2v11.4h8.2v-11.4zm-.3-17.1h-7.7v10.7h7.7v-10.7zm-.2-17.2h-7.1v9.9h7.1v-9.9zm-.3-17.2h-6.6v9.1h6.6v-9.1zm-.2-17.1h-6v8.3h6v-8.3zm-.3-17.2h-5.4v7.5h5.4V411zm-.2-17.1h-4.9v6.8h4.9v-6.8zm-.3-12.3h-4.3v6h4.3v-6zm-.3-12.2h-3.7v5.2h3.7v-5.2zm-.2-10.1h-3.2v4.4h3.2v-4.4zm-.3-8.1h-2.6v3.6h2.6v-3.6zm26 446h-17.2v23.9h17.2v-23.9zm-.8-24.4h-15.6v21.6h15.6v-21.6zm-.3-25.2h-15v20.8h15v-20.8zm-.2-24H1949v20h14.4v-20zm-.2-25.2h-13.9v19.3h13.9v-19.3zm-.3-22.8h-13.3v18.5h13.3v-18.5zm-.2-22.1H1950v17.7h12.7v-17.7zm-.3-22.1h-12.2v16.9h12.2v-16.9zm-.2-22.1h-11.6v16.1h11.6v-16.1zm-.3-20.9h-11.1v15.4h11.1v-15.4zm-.2-21h-10.5V582h10.5v-14.6zm-.3-19.1h-9.9v13.8h9.9v-13.8zm-.2-17.2h-9.4v13h9.4v-13zm22.9 266.1h-17.2v23.9h17.2v-23.9zm-.8-24.4h-15.6v21.6h15.6v-21.6zm-.2-25.2h-15v20.8h15v-20.8zm-.3-24h-14.4v20h14.4v-20zm-.2-25.1h-13.9v19.3h13.9v-19.3zm-.3-22.9H1969v18.5h13.3v-18.5zm-.2-22.1h-12.7v17.7h12.7v-17.7zm-.3-22.1h-12.2v16.9h12.2v-16.9zm-.2-22.1H1970v16.1h11.6v-16.1zm-.2-20.9h-11.1v15.4h11.1v-15.4zm-.3-20.9h-10.5v14.6h10.5v-14.6zm-.2-19.2h-9.9v13.8h9.9v-13.8zm-.3-17.1h-9.4v13h9.4v-13zm-.2-17.2h-8.8v12.2h8.8V514zm-.3-17.1h-8.2v11.4h8.2v-11.4zm-.2-17.2h-7.7v10.7h7.7v-10.7zm-.3-17.1h-7.1v9.9h7.1v-9.9zm-.2-17.2h-6.6v9.1h6.6v-9.1zm-.3-17.1h-6v8.3h6v-8.3zm-.3-17.2h-5.4v7.5h5.4v-7.5zm24.7 386.2h-17.2v23.9h17.2v-23.9zm-.8-24.4h-15.6v21.6h15.6v-21.6zm-.2-25.2h-15v20.8h15v-20.8zm-.3-24h-14.4v20h14.4v-20zm-.2-25.2h-13.9v19.3h13.9v-19.3zm-.3-22.9h-13.3v18.5h13.3v-18.5zm-.2-22.1h-12.7v17.7h12.7v-17.7zm-.2-22h-12.2v16.9h12.2v-16.9zm-.3-22.1h-11.6v16.1h11.6v-16.1zm-.2-21h-11.1v15.4h11.1v-15.4zm-.3-20.9H1990v14.6h10.5v-14.6zm-.2-19.1h-9.9v13.8h9.9v-13.8zm-.3-17.2h-9.4v13h9.4v-13zm-.2-17.1h-8.8v12.2h8.8v-12.2zm-.3-17.2h-8.2v11.4h8.2v-11.4zm-.2-17.1h-7.7v10.7h7.7v-10.7zm-.3-17.2h-7.1v9.9h7.1v-9.9zm-.2-17.2h-6.6v9.1h6.6v-9.1zm-.3-17.1h-6v8.3h6v-8.3zm-.2-17.2h-5.4v7.5h5.4v-7.5zm-.3-17.1h-4.9v6.8h4.9V394zm-.2-12.3h-4.3v6h4.3v-6zm-.3-12.2h-3.7v5.2h3.7v-5.2zm25.4 427.8h-17.2v23.9h17.2v-23.9zm-.8-24.4h-15.6v21.6h15.6v-21.6zm-.2-25.2h-15v20.8h15v-20.8zm-.3-24h-14.4v20h14.4v-20zm-.2-25.2h-13.9v19.3h13.9v-19.3zm-.2-22.8h-13.3v18.5h13.3v-18.5zm-.3-22.1h-12.7v17.7h12.7v-17.7zm21.4 143.7h-17.2v23.9h17.2v-23.9zm-.8-24.4h-15.6v21.6h15.6v-21.6zm-.2-25.2h-15v20.8h15v-20.8zm-.2-24h-14.4v20h14.4v-20zm-.3-25.1h-13.9v19.3h13.9v-19.3zm-.2-22.9h-13.3v18.5h13.3v-18.5zm-.3-22.1h-12.7v17.7h12.7v-17.7zm-.2-22.1h-12.2v16.9h12.2v-16.9zm-.3-22.1h-11.6v16.1h11.6v-16.1zm-.2-20.9h-11.1v15.4h11.1v-15.4zm-.2-20.9h-10.5v14.6h10.5v-14.6zm-.3-19.2h-9.9v13.8h9.9v-13.8zm22.7 249h-17.2v23.9h17.2v-23.9zm-.9-24.4h-15.6v21.6h15.6V773zm-.2-25.2h-15v20.8h15v-20.8zm-.2-24h-14.4v20h14.4v-20zm-.3-25.2h-13.9v19.3h13.9v-19.3zm-.2-22.9h-13.3v18.5h13.3v-18.5zm-.3-22H2047v17.7h12.7v-17.7zm-.2-22.1h-12.2v16.9h12.2v-16.9zm-.2-22.1h-11.6v16.1h11.6v-16.1zm-.3-21h-11.1v15.4h11.1v-15.4zm-.2-20.9h-10.5v14.6h10.5v-14.6zm-.3-19.1h-9.9v13.8h9.9v-13.8zm-.2-17.2h-9.4v13h9.4v-13zm-.3-17.1h-8.8v12.2h8.8v-12.2zm-.2-17.2h-8.2v11.4h8.2V497zm-.3-17.1h-7.7v10.7h7.7v-10.7zm-.2-17.2h-7.1v9.9h7.1v-9.9zm-.3-17.2h-6.6v9.1h6.6v-9.1zm-.2-17.1h-6v8.3h6v-8.3zm-.3-17.2h-5.4v7.5h5.4v-7.5zm-.2-17.1h-4.9v6.8h4.9v-6.8zm24.9 403.3H2064v23.9h17.2v-23.9zm-.8-24.4h-15.6v21.6h15.6V773zm-.3-25.2h-15v20.8h15v-20.8zm-.2-24h-14.4v20h14.4v-20zm-.3-25.2h-13.9v19.3h13.9v-19.3zm-.2-22.8h-13.3v18.5h13.3v-18.5zm-.2-22.1h-12.7v17.7h12.7v-17.7zm-.3-22.1h-12.2v16.9h12.2v-16.9zm-.2-22.1h-11.6v16.1h11.6v-16.1zm-.3-20.9h-11.1V604h11.1v-15.4zm-.2-21h-10.5v14.6h10.5v-14.6zm-.3-19.1h-9.9v13.8h9.9v-13.8zm-.2-17.2h-9.4v13h9.4v-13zm22.9 266.1h-17.2v23.9h17.2v-23.9zm-.8-24.4h-15.6v21.6h15.6V773zm-.3-25.2h-15v20.8h15v-20.8zm-.2-24h-14.4v20h14.4v-20zm-.2-25.1h-13.9V718h13.9v-19.3zm-.3-22.9h-13.3v18.5h13.3v-18.5zm-.2-22.1h-12.7v17.7h12.7v-17.7zm-.3-22.1h-12.2v16.9h12.2v-16.9zm-.2-22.1h-11.6v16.1h11.6v-16.1zm-.3-20.9h-11.1V604h11.1v-15.4zm-.2-20.9h-10.5v14.6h10.5v-14.6zm-.2-19.2h-9.9v13.8h9.9v-13.8zm-.3-17.1h-9.4v13h9.4v-13zm-.3-17.2h-8.8v12.2h8.8v-12.2zm-.2-17.1h-8.2v11.4h8.2v-11.4zm-.3-17.2h-7.7v10.7h7.7v-10.7zm-.2-17.1h-7.1v9.9h7.1v-9.9zm-.3-17.2h-6.6v9.1h6.6v-9.1zm24.2 351.9h-17.2v23.9h17.2v-23.9zm-.8-24.4h-15.6v21.6h15.6v-21.6zm-.2-25.2h-15v20.8h15v-20.8zm-.3-24h-14.4v20h14.4v-20zm-.2-25.2h-13.9V718h13.9v-19.3zm-.3-22.9h-13.3v18.5h13.3v-18.5zm-.2-22h-12.7v17.7h12.7v-17.7zm-.3-22.1h-12.2v16.9h12.2v-16.9zm-.2-22.1h-11.6v16.1h11.6v-16.1zm-.2-21h-11.1V604h11.1v-15.4zm-.3-20.9h-10.5v14.6h10.5v-14.6zm-.2-19.1h-9.9v13.8h9.9v-13.8zm-.3-17.2h-9.4v13h9.4v-13zm-.2-17.1h-8.8v12.2h8.8v-12.2zm-.3-17.2h-8.2v11.4h8.2v-11.4zm-.2-17.1h-7.7v10.7h7.7V480zm-.3-17.2h-7.1v9.9h7.1v-9.9zm-.2-17.2h-6.6v9.1h6.6v-9.1zm-.3-17.1h-6v8.3h6v-8.3zm-.2-17.2h-5.4v7.5h5.4v-7.5zm-.3-17.1h-4.9v6.8h4.9v-6.8zm24.9 403.3h-17.2v23.9h17.2v-23.9zm-.8-24.4H2123v21.6h15.6v-21.6zm-.2-25.2h-15v20.8h15v-20.8zm-.3-24h-14.4v20h14.4v-20zm-.2-25.2H2124V718h13.9v-19.3zm-.3-22.8h-13.3v18.5h13.3v-18.5zm-.2-22.1h-12.7v17.7h12.7v-17.7zm-.2-22.1H2125v16.9h12.2v-16.9zm-.3-22.1h-11.6v16.1h11.6v-16.1zm-.2-20.9h-11.1v15.4h11.1v-15.4zm-.3-21h-10.5v14.6h10.5v-14.6zm-.2-19.1h-9.9v13.8h9.9v-13.8zm-.3-17.2h-9.4v13h9.4v-13zm-.2-17.1h-8.8v12.2h8.8v-12.2zm-.3-17.2h-8.2v11.4h8.2v-11.4zm-.2-17.1h-7.7v10.7h7.7V480zm-.3-17.2h-7.1v9.9h7.1v-9.9zm-.2-17.1h-6.6v9.1h6.6v-9.1zm-.3-17.2h-6v8.3h6v-8.3zm-.2-17.1h-5.4v7.5h5.4v-7.5zm-.3-17.2h-4.9v6.8h4.9v-6.8zm-.2-12.3h-4.3v6h4.3v-6zm-.3-12.2h-3.7v5.2h3.7v-5.2zm-.3-10.1h-3.2v4.4h3.2v-4.4zm-.2-8.1h-2.6v3.6h2.6v-3.6zm25.9 446h-17.2v23.9h17.2v-23.9zm-.8-24.4h-15.6v21.6h15.6v-21.6zm-.2-25.2h-15v20.8h15v-20.8zm-.3-24h-14.4v20h14.4v-20zm-.2-25.1h-13.9v19.3h13.9v-19.3zm-.2-22.9h-13.3v18.5h13.3v-18.5zm-.3-22.1h-12.7v17.7h12.7v-17.7zm-.2-22.1h-12.2v16.9h12.2v-16.9zm-.3-22.1h-11.6v16.1h11.6v-16.1zm-.2-20.9H2145v15.4h11.1v-15.4zm-.3-20.9h-10.5v14.6h10.5v-14.6zm-.2-19.2h-9.9v13.8h9.9v-13.8zm-.3-17.1h-9.4v13h9.4v-13zm-.2-17.2h-8.8v12.2h8.8v-12.2zm-.3-17.1h-8.2v11.4h8.2v-11.4zm-.2-17.2h-7.7v10.7h7.7V480zm-.3-17.1h-7.1v9.9h7.1v-9.9zm-.2-17.2h-6.6v9.1h6.6v-9.1zm-.3-17.1h-6v8.3h6v-8.3zm24.4 369H2161v23.9h17.2v-23.9zm-.8-24.4h-15.6v21.6h15.6v-21.6zm-.2-25.2h-15v20.8h15V748zm-.2-24h-14.4v20h14.4v-20zm-.3-25.2h-13.9v19.3h13.9v-19.3zm-.2-22.9h-13.3v18.5h13.3v-18.5zm-.3-22h-12.7v17.7h12.7v-17.7zm-.2-22.1h-12.2v16.9h12.2v-16.9zm-.2-22.1h-11.6v16.1h11.6v-16.1zm-.3-21h-11.1v15.4h11.1v-15.4zm-.2-20.9h-10.5v14.6h10.5v-14.6zm-.3-19.1h-9.9v13.8h9.9v-13.8zm-.2-17.2h-9.4v13h9.4v-13zm-.3-17.1h-8.8v12.2h8.8v-12.2zm-.2-17.2h-8.2v11.4h8.2v-11.4zm23.4 300.4h-17.2v23.9h17.2v-23.9zm-.8-24.4h-15.6v21.6h15.6v-21.6zm-.3-25.2h-15v20.8h15V748zm-.2-24H2182v20h14.4v-20zm-.3-25.2h-13.9v19.3h13.9v-19.3zm-.2-22.8h-13.3v18.5h13.3V676zm-.2-22.1H2183v17.7h12.7v-17.7zm-.3-22.1h-12.2v16.9h12.2v-16.9zm-.2-22.1h-11.6v16.1h11.6v-16.1zm-.3-20.9h-11.1v15.4h11.1v-15.4zm-.2-21h-10.5v14.6h10.5v-14.6zm-.3-19.1h-9.9v13.8h9.9v-13.8zm-.2-17.2h-9.4v13h9.4v-13zm-.3-17.1h-8.8v12.2h8.8v-12.2zm-.2-17.2h-8.2v11.4h8.2v-11.4zm-.3-17.1h-7.7v10.7h7.7v-10.7zm-.2-17.2h-7.1v9.9h7.1v-9.9zm-.3-17.1h-6.6v9.1h6.6v-9.1zm-.2-17.2h-6v8.3h6v-8.3zm-.3-17.1h-5.4v7.5h5.4v-7.5zm24.7 386.1h-17.2v23.9h17.2v-23.9zm-.8-24.4h-15.6v21.6h15.6v-21.6zm-.3-25.2h-15v20.8h15V748zm-.2-24h-14.4v20h14.4v-20zm-.2-25.1h-13.9v19.3h13.9v-19.3zm-.3-22.9H2202v18.5h13.3V676zm-.2-22.1h-12.7v17.7h12.7v-17.7zm-.3-22.1h-12.2v16.9h12.2v-16.9zm-.2-22.1H2203v16.1h11.6v-16.1zm-.3-20.9h-11.1v15.4h11.1v-15.4zm-.2-20.9h-10.5v14.6h10.5v-14.6zm-.3-19.2h-9.9v13.8h9.9v-13.8zm-.2-17.1h-9.4v13h9.4v-13zm-.3-17.2h-8.8v12.2h8.8v-12.2zm-.2-17.1h-8.2v11.4h8.2v-11.4zm-.3-17.2h-7.7v10.7h7.7v-10.7zm-.2-17.1h-7.1v9.9h7.1V463zm-.3-17.2h-6.6v9.1h6.6v-9.1zm-.2-17.1h-6v8.3h6v-8.3zm-.3-17.2h-5.4v7.5h5.4v-7.5zm-.2-17.1h-4.9v6.8h4.9v-6.8zm-.3-12.3h-4.3v6h4.3v-6zm-.2-12.2h-3.7v5.2h3.7v-5.2zm-.3-10.1h-3.2v4.4h3.2v-4.4zm-.3-8.1h-2.6v3.6h2.6v-3.6zm26 446h-17.2v23.9h17.2v-23.9zm-.8-24.4h-15.6v21.6h15.6v-21.6zm-.3-25.2h-15v20.8h15v-20.8zm-.2-24h-14.4v20h14.4v-20zm-.2-25.2h-13.9v19.3h13.9v-19.3zm-.3-22.9h-13.3v18.5h13.3V676zm-.2-22h-12.7v17.7h12.7V654zm-.3-22.1H2222v16.9h12.2v-16.9zm-.2-22.1h-11.6v16.1h11.6v-16.1zm-.3-21h-11.1v15.4h11.1v-15.4zm-.2-20.9H2223v14.6h10.5v-14.6zm22.4 229.8h-17.2v23.9h17.2v-23.9zm-.8-24.4h-15.6v21.6h15.6v-21.6zm-.2-25.2h-15v20.8h15v-20.8zm-.3-24h-14.4v20h14.4v-20zm-.2-25.2h-13.9v19.3h13.9v-19.3zm-.3-22.8h-13.3v18.5h13.3v-18.5zm-.2-22.1h-12.7v17.7h12.7V654zm-.2-22.1h-12.2v16.9h12.2v-16.9zm-.3-22.1h-11.6v16.1h11.6v-16.1zm-.2-20.9h-11.1v15.4h11.1v-15.4zm-.3-21h-10.5v14.6h10.5v-14.6zm-.2-19.1h-9.9v13.8h9.9v-13.8zm-.3-17.2h-9.4v13h9.4v-13zm-.2-17.1h-8.8v12.2h8.8v-12.2zm23.1 283.2h-17.2v23.9h17.2v-23.9zm-.8-24.4h-15.6v21.6h15.6v-21.6zm-.2-25.2h-15v20.8h15v-20.8zm-.3-24h-14.4v20h14.4v-20zm-.2-25.1h-13.9v19.3h13.9V699zm-.2-22.9h-13.3v18.5h13.3v-18.5zm-.3-22.1h-12.7v17.7h12.7V654zm-.2-22.1h-12.2v16.9h12.2v-16.9zm-.3-22.1h-11.6v16.1h11.6v-16.1zm-.2-20.9h-11.1v15.4h11.1v-15.4zm-.3-20.9h-10.5v14.6h10.5V568zm-.2-19.2h-9.9v13.8h9.9v-13.8zm-.3-17.1h-9.4v13h9.4v-13zm-.2-17.2h-8.8v12.2h8.8v-12.2zm-.3-17.1h-8.2v11.4h8.2v-11.4zm-.2-17.2h-7.7v10.7h7.7v-10.7zm-.3-17.1h-7.1v9.9h7.1v-9.9zm-.2-17.2h-6.6v9.1h6.6v-9.1zm-.3-17.1h-6v8.3h6v-8.3zm-.2-17.2h-5.4v7.5h5.4v-7.5zm-.3-17.1h-4.9v6.8h4.9v-6.8zm24.9 403.3h-17.2v23.9h17.2v-23.9zm-.8-24.4h-15.6V795h15.6v-21.6zm-.2-25.2h-15V769h15v-20.8zm-.3-24H2279v20h14.4v-20zm-.2-25.2h-13.9v19.3h13.9V699zm-.2-22.9h-13.3v18.5h13.3v-18.5zm-.3-22H2280v17.7h12.7v-17.7zm-.2-22.1h-12.2v16.9h12.2V632zm-.3-22.1h-11.6V626h11.6v-16.1zm-.2-21h-11.1v15.4h11.1v-15.4zm-.3-20.9h-10.5v14.6h10.5V568zm-.2-19.1h-9.9v13.8h9.9v-13.8zm-.3-17.2h-9.4v13h9.4v-13zm-.2-17.1h-8.8v12.2h8.8v-12.2zm-.3-17.2h-8.2v11.4h8.2v-11.4zm23.4 300.4h-17.2v23.9h17.2v-23.9zm-.8-24.4h-15.6V795h15.6v-21.6zm-.2-25.2h-15V769h15v-20.8zm-.2-24h-14.4v20h14.4v-20zm-.3-25.2h-13.9v19.3h13.9V699zm-.2-22.8h-13.3v18.5h13.3v-18.5zm-.3-22.1h-12.7v17.7h12.7v-17.7zm-.2-22.1h-12.2v16.9h12.2V632zm-.2-22.1h-11.6V626h11.6v-16.1zm-.3-20.9h-11.1v15.4h11.1V589zm-.2-21h-10.5v14.6h10.5V568zm-.3-19.1h-9.9v13.8h9.9v-13.8zm-.2-17.2h-9.4v13h9.4v-13zm-.3-17.1h-8.8v12.2h8.8v-12.2zm-.2-17.2h-8.2v11.4h8.2v-11.4zm-.3-17.1h-7.7V491h7.7v-10.7zm-.2-17.2h-7.1v9.9h7.1v-9.9zm-.3-17.1h-6.6v9.1h6.6V446zm-.2-17.2h-6v8.3h6v-8.3zm24.4 369h-17.2v23.9h17.2v-23.9zm-.8-24.4h-15.6V795h15.6v-21.6zm-.3-25.2h-15V769h15v-20.8zm-.2-24h-14.4v20h14.4v-20zm-.3-25.1h-13.9v19.3h13.9v-19.3zm-.2-22.9h-13.3v18.5h13.3v-18.5zm-.2-22.1h-12.7v17.7h12.7v-17.7zm-.3-22.1h-12.2v16.9h12.2V632zm21.7 165.9h-17.2v23.9h17.2v-23.9zm-.8-24.4h-15.6v21.6h15.6v-21.6zm-.3-25.2h-15v20.8h15v-20.8zm-.2-24h-14.4v20h14.4v-20zm-.2-25.2h-13.9v19.3h13.9v-19.3zm-.3-22.9h-13.3v18.5h13.3v-18.5zm-.2-22h-12.7v17.7h12.7v-17.7zm-.3-22.1h-12.2V649h12.2v-16.9zm-.2-22.1h-11.6v16.1h11.6V610zm-.3-21h-11.1v15.4h11.1V589zm-.2-20.9h-10.5v14.6h10.5v-14.6zm-.3-19.1h-9.9v13.8h9.9V549zm-.2-17.2h-9.4v13h9.4v-13zm-.3-17.1h-8.8v12.2h8.8v-12.2zm-.2-17.2h-8.2v11.4h8.2v-11.4zm-.3-17.1h-7.7v10.7h7.7v-10.7zm-.2-17.2h-7.1v9.9h7.1v-9.9zm-.3-17.2h-6.6v9.1h6.6V446zm-.2-17.1h-6v8.3h6v-8.3zm-.3-17.2h-5.4v7.5h5.4v-7.5zm24.7 386.2h-17.2v23.9h17.2v-23.9zm-.8-24.4H2356v21.6h15.6v-21.6zm-.3-25.2h-15v20.8h15v-20.8zm-.2-24h-14.4v20h14.4v-20zm-.2-25.2H2357v19.3h13.9v-19.3zm-.3-22.8h-13.3v18.5h13.3v-18.5zm-.2-22.1h-12.7v17.7h12.7v-17.7zm-.3-22.1h-12.2V649h12.2v-16.9zm-.2-22.1h-11.6v16.1h11.6V610zm-.2-20.9h-11.1v15.4h11.1v-15.4zm-.3-21h-10.5v14.6h10.5v-14.6zm-.2-19.1h-9.9v13.8h9.9V549zm-.3-17.2h-9.4v13h9.4v-13zm-.2-17.1h-8.8v12.2h8.8v-12.2zm-.3-17.2h-8.2v11.4h8.2v-11.4zm-.2-17.1h-7.7v10.7h7.7v-10.7zm-.3-17.2h-7.1v9.9h7.1v-9.9zm-.3-17.1h-6.6v9.1h6.6v-9.1zm-.2-17.2h-6v8.3h6v-8.3zm-.3-17.1h-5.4v7.5h5.4v-7.5zm-.2-17.2h-4.9v6.8h4.9v-6.8zm-.3-12.3h-4.3v6h4.3v-6zm-.2-12.2h-3.7v5.2h3.7v-5.2zm-.3-10.1h-3.2v4.4h3.2V360zm-.3-8.1h-2.6v3.6h2.6v-3.6zm26 446h-17.2v23.9h17.2v-23.9zm-.8-24.4h-15.6v21.6h15.6v-21.6zm-.2-25.2h-15v20.8h15v-20.8zm-.3-24h-14.4v20h14.4v-20zm-.2-25.1h-13.9v19.3h13.9v-19.3zm-.3-22.9h-13.3v18.5h13.3v-18.5zm-.2-22.1h-12.7v17.7h12.7v-17.7zm-.2-22.1h-12.2V649h12.2v-16.9zm-.3-22.1h-11.6v16.1h11.6V610zm-.2-20.9H2378v15.4h11.1v-15.4zm-.3-20.9h-10.5v14.6h10.5v-14.6zm-.2-19.2h-9.9v13.8h9.9V549zm-.3-17.1h-9.4v13h9.4v-13zm-.2-17.2h-8.8v12.2h8.8v-12.2zm-.3-17.1h-8.2V509h8.2v-11.4zm-.2-17.2h-7.7v10.7h7.7v-10.7zm-.3-17.1h-7.1v9.9h7.1v-9.9zm-.2-17.2h-6.6v9.1h6.6v-9.1zm-.3-17.1h-6v8.3h6V429zm-.2-17.2h-5.4v7.5h5.4v-7.5zm-.3-17.1h-4.9v6.8h4.9v-6.8zm-.3-12.3h-4.3v6h4.3v-6zm-.2-12.2h-3.7v5.2h3.7v-5.2zm-.3-10.1h-3.2v4.4h3.2v-4.4zm-.2-8.1h-2.6v3.6h2.6V352zM1076.4 819.6h15.2v-23.9h-15.2v23.9zm.1-26.7h14.3v-21.6h-14.3v21.6zm0-26h14.1v-20.8h-14.1v20.8zm.1-24.8h13.8v-20h-13.8v20zm0-25.9h13.5v-19.3h-13.5v19.3zm.1-23.7h13.2V674h-13.2v18.5zm13-40.5H1077v17.7h12.7V652zm-.3-22.1h-12.2v16.9h12.2v-16.9zm-.2-22.1h-11.6v16.1h11.6v-16.1zm-.3-20.9h-11.1v15.4h11.1v-15.4zm-.2-21h-10.5v14.6h10.5v-14.6zm-.3-19.1h-9.9v13.8h9.9v-13.8zm-.2-17.2h-9.4v13h9.4v-13zm-.3-17.1h-8.8v12.2h8.8v-12.2zm-.2-17.2h-8.2v11.4h8.2v-11.4zm-.3-17.1h-7.7v10.7h7.7v-10.7zm-.2-17.2h-7.1v9.9h7.1V461zm23.9 334.7h-17.2v23.9h17.2v-23.9zm-.8-24.4h-15.6v21.6h15.6v-21.6zm-.3-25.2h-15v20.8h15v-20.8zm-.2-24h-14.4v20h14.4v-20zm-.2-25.1h-13.9v19.3h13.9V697zm-.3-22.9H1096v18.5h13.3v-18.5zm-.2-22.1h-12.7v17.7h12.7V652zm-.3-22.1h-12.2v16.9h12.2v-16.9zm-.2-22.1H1097v16.1h11.6v-16.1zm-.3-20.9h-11.1v15.4h11.1v-15.4zm-.2-20.9h-10.5v14.6h10.5V566zm-.3-19.2h-9.9v13.8h9.9v-13.8zm-.2-17.1h-9.4v13h9.4v-13zm-.3-17.2h-8.8v12.2h8.8v-12.2zm-.2-17.1h-8.2v11.4h8.2v-11.4zm-.3-17.2h-7.7v10.7h7.7v-10.7zm-.2-17.1h-7.1v9.9h7.1v-9.9zm-.3-17.2h-6.6v9.1h6.6v-9.1zm-.2-17.1h-6v8.3h6v-8.3zm-.3-17.2h-5.4v7.5h5.4v-7.5zm-.2-17.1h-4.9v6.8h4.9v-6.8zm-.3-12.3h-4.3v6h4.3v-6zm25.2 415.6h-17.2v23.9h17.2v-23.9zm-.8-24.4h-15.6V793h15.6v-21.6zm-.3-25.2h-15V767h15v-20.8zm-.2-24h-14.4v20h14.4v-20zm-.2-25.2h-13.9v19.3h13.9V697zm-.3-22.9h-13.3v18.5h13.3v-18.5zm-.2-22h-12.7v17.7h12.7v-17.7zm-.3-22.1H1116v16.9h12.2V630zm-.2-22.1h-11.6V624h11.6v-16.1zm-.2-21h-11.1v15.4h11.1v-15.4zm-.3-20.9H1117v14.6h10.5V566zm-.2-19.1h-9.9v13.8h9.9v-13.8zm-.3-17.2h-9.4v13h9.4v-13zm-.2-17.1h-8.8v12.2h8.8v-12.2zm-.3-17.2h-8.2v11.4h8.2v-11.4zm-.2-17.1h-7.7V489h7.7v-10.7zm-.3-17.2h-7.1v9.9h7.1v-9.9zm-.3-17.2h-6.6v9.1h6.6v-9.1zm-.2-17.1h-6v8.3h6v-8.3zm-.3-17.2h-5.4v7.5h5.4v-7.5zm-.2-17.1h-4.9v6.8h4.9v-6.8zm-.3-12.3h-4.3v6h4.3v-6zm-.2-12.2h-3.7v5.2h3.7V368zm-.3-10.1h-3.2v4.4h3.2v-4.4zm-.3-8.1h-2.6v3.6h2.6v-3.6zm26 446h-17.2v23.9h17.2v-23.9zm-.8-24.4h-15.6V793h15.6v-21.6zm-.2-25.2h-15V767h15v-20.8zm-.3-24h-14.4v20h14.4v-20zm-.2-25.2h-13.9v19.3h13.9V697zm-.3-22.8h-13.3v18.5h13.3v-18.5zm-.2-22.1h-12.7v17.7h12.7v-17.7zm-.2-22.1h-12.2v16.9h12.2V630zm-.3-22.1h-11.6V624h11.6v-16.1zm-.2-20.9h-11.1v15.4h11.1V587zm-.3-21h-10.5v14.6h10.5V566zm-.2-19.1h-9.9v13.8h9.9v-13.8zm-.3-17.2h-9.4v13h9.4v-13zm-.2-17.1h-8.8v12.2h8.8v-12.2zm-.3-17.2h-8.2v11.4h8.2v-11.4zm-.2-17.1h-7.7V489h7.7v-10.7zm23.6 317.5h-17.2v23.9h17.2v-23.9zm-.8-24.4h-15.6V793h15.6v-21.6zm-.2-25.2h-15V767h15v-20.8zm-.3-24h-14.4v20h14.4v-20zm-.2-25.1h-13.9v19.3h13.9v-19.3zm-.2-22.9h-13.3v18.5h13.3v-18.5zm-.3-22.1h-12.7v17.7h12.7v-17.7zm-.2-22.1h-12.2v16.9h12.2V630zm-.3-22.1h-11.6V624h11.6v-16.1zm-.2-20.9h-11.1v15.4h11.1V587zm-.3-20.9h-10.5v14.6h10.5v-14.6zm-.2-19.2h-9.9v13.8h9.9v-13.8zm-.3-17.1h-9.4v13h9.4v-13zm-.2-17.2h-8.8v12.2h8.8v-12.2zm-.3-17.1h-8.2v11.4h8.2v-11.4zm-.2-17.2h-7.7V489h7.7v-10.7zm-.3-17.1h-7.1v9.9h7.1v-9.9zm-.2-17.2h-6.6v9.1h6.6V444zm24.1 351.9h-17.2v23.9h17.2v-23.9zm-.8-24.4h-15.6v21.6h15.6v-21.6zm-.2-25.2h-15v20.8h15v-20.8zm-.2-24h-14.4v20h14.4v-20zm-.3-25.2h-13.9v19.3h13.9v-19.3zm-.2-22.9h-13.3v18.5h13.3v-18.5zm-.3-22H1174v17.7h12.7v-17.7zm-.2-22.1h-12.2V647h12.2v-16.9zm-.3-22.1h-11.6v16.1h11.6V608zm-.2-21h-11.1v15.4h11.1V587zm-.2-20.9h-10.5v14.6h10.5v-14.6zm-.3-19.1h-9.9v13.8h9.9V547zm-.2-17.2h-9.4v13h9.4v-13zm-.3-17.1h-8.8v12.2h8.8v-12.2zm-.3-17.2h-8.2v11.4h8.2v-11.4zm-.2-17.1h-7.7v10.7h7.7v-10.7zm-.3-17.2h-7.1v9.9h7.1v-9.9zm-.2-17.2h-6.6v9.1h6.6V444zm-.3-17.1h-6v8.3h6v-8.3zm-.2-17.2h-5.4v7.5h5.4v-7.5zm-.3-17.1h-4.9v6.8h4.9v-6.8zm-.2-12.3h-4.3v6h4.3v-6zm25.1 415.6h-17.2v23.9h17.2v-23.9zm-.8-24.4h-15.6v21.6h15.6v-21.6zm-.2-25.2h-15v20.8h15v-20.8zm-.2-24h-14.4v20h14.4v-20zm-.3-25.2h-13.9v19.3h13.9v-19.3zm-.2-22.8h-13.3v18.5h13.3v-18.5zm-.3-22.1h-12.7v17.7h12.7v-17.7zm-.2-22.1h-12.2V647h12.2v-16.9zm-.2-22.1h-11.6v16.1h11.6V608zm-.3-20.9h-11.1v15.4h11.1v-15.4zm-.2-21h-10.5v14.6h10.5v-14.6zm22.4 229.8h-17.2v23.9h17.2v-23.9zm-.8-24.4h-15.6v21.6h15.6v-21.6zm-.3-25.2h-15v20.8h15v-20.8zm-.2-24h-14.4v20h14.4v-20zm-.3-25.1h-13.9v19.3h13.9v-19.3zm-.2-22.9h-13.3v18.5h13.3v-18.5zm-.2-22.1h-12.7v17.7h12.7v-17.7zm-.3-22.1h-12.2V647h12.2v-16.9zm-.2-22.1h-11.6v16.1h11.6V608zm-.3-20.9h-11.1v15.4h11.1v-15.4zm-.2-20.9h-10.5v14.6h10.5v-14.6zm-.3-19.2h-9.9v13.8h9.9V547zm-.2-17.1h-9.4v13h9.4v-13zm-.3-17.2h-8.8v12.2h8.8v-12.2zm-.2-17.1h-8.2V507h8.2v-11.4zm-.3-17.2h-7.7v10.7h7.7v-10.7zM1247 796h-17.2v23.9h17.2V796zm-.8-24.4h-15.6v21.6h15.6v-21.6zm-.3-25.2h-15v20.8h15v-20.8zm-.2-24h-14.4v20h14.4v-20zm-.2-25.2h-13.9v19.3h13.9v-19.3zm-.3-22.9h-13.3v18.5h13.3v-18.5zm-.2-22h-12.7V670h12.7v-17.7zm-.3-22.1h-12.2v16.9h12.2v-16.9zm-.2-22.1h-11.6v16.1h11.6v-16.1zm-.3-21h-11.1v15.4h11.1v-15.4zm-.2-20.9h-10.5v14.6h10.5v-14.6zm-.3-19.1h-9.9v13.8h9.9v-13.8zm-.2-17.2h-9.4v13h9.4v-13zm-.3-17.1h-8.8V525h8.8v-12.2zm-.2-17.2h-8.2V507h8.2v-11.4zm-.3-17.1h-7.7v10.7h7.7v-10.7zm-.2-17.2h-7.1v9.9h7.1v-9.9zm-.3-17.2h-6.6v9.1h6.6v-9.1zm-.2-17.1h-6v8.3h6V427zm-.3-17.2h-5.4v7.5h5.4v-7.5zm24.7 386.2h-17.2v23.9h17.2V796zm-.8-24.4H1250v21.6h15.6v-21.6zm-.2-25.2h-15v20.8h15v-20.8zm-.3-24h-14.4v20h14.4v-20zm-.2-25.2H1251v19.3h13.9v-19.3zm-.3-22.8h-13.3v18.5h13.3v-18.5zm-.2-22.1h-12.7V670h12.7v-17.7zm-.3-22.1h-12.2v16.9h12.2v-16.9zm-.2-22.1h-11.6v16.1h11.6v-16.1zm-.2-20.9h-11.1v15.4h11.1v-15.4zm-.3-21h-10.5v14.6h10.5v-14.6zm-.2-19.1h-9.9v13.8h9.9v-13.8zm-.3-17.2h-9.4v13h9.4v-13zm-.2-17.1h-8.8V525h8.8v-12.2zm-.3-17.2h-8.2V507h8.2v-11.4zm-.2-17.1h-7.7v10.7h7.7v-10.7zm-.3-17.2h-7.1v9.9h7.1v-9.9zm-.2-17.1h-6.6v9.1h6.6v-9.1zm-.3-17.2h-6v8.3h6V427zm-.3-17.1h-5.4v7.5h5.4v-7.5zm-.2-17.2h-4.9v6.8h4.9v-6.8zm-.3-12.3h-4.3v6h4.3v-6zm-.2-12.2h-3.7v5.2h3.7v-5.2zm-.3-10.1h-3.2v4.4h3.2v-4.4zm-.3-8.1h-2.6v3.6h2.6V350zm26 446h-17.2v23.9h17.2V796zm-.8-24.4h-15.6v21.6h15.6v-21.6zm-.2-25.2h-15v20.8h15v-20.8zm-.3-24h-14.4v20h14.4v-20zm-.2-25.1h-13.9v19.3h13.9v-19.3zm-.3-22.9h-13.3v18.5h13.3v-18.5zm-.2-22.1h-12.7V670h12.7v-17.7zm-.2-22.1h-12.2v16.9h12.2v-16.9zm-.3-22.1h-11.6v16.1h11.6v-16.1zm-.2-20.9H1272v15.4h11.1v-15.4zm-.3-20.9h-10.5v14.6h10.5v-14.6zm-.2-19.2h-9.9v13.8h9.9v-13.8zm-.3-17.1h-9.4v13h9.4v-13zm22.9 266.1H1288V820h17.2v-23.9zm-.8-24.4h-15.6v21.6h15.6v-21.6zm-.2-25.2h-15v20.8h15v-20.8zm-.3-24h-14.4v20h14.4v-20zm-.2-25.2h-13.9v19.3h13.9v-19.3zm-.2-22.9h-13.3v18.5h13.3v-18.5zm-.3-22h-12.7v17.7h12.7v-17.7zm-.2-22.1h-12.2v16.9h12.2v-16.9zm-.3-22.1h-11.6v16.1h11.6v-16.1zm-.2-21h-11.1v15.4h11.1v-15.4zm-.3-20.9h-10.5v14.6h10.5v-14.6zm-.2-19.1h-9.9V561h9.9v-13.8zm-.3-17.2h-9.4v13h9.4v-13zm-.2-17.1h-8.8v12.2h8.8v-12.2zm-.3-17.2h-8.2v11.4h8.2v-11.4zm-.2-17.1h-7.7v10.7h7.7v-10.7zm-.3-17.2h-7.1v9.9h7.1v-9.9zm-.2-17.2h-6.6v9.1h6.6v-9.1zm-.3-17.1h-6v8.3h6v-8.3zm-.2-17.2h-5.4v7.5h5.4v-7.5zm24.6 386.2h-17.2V820h17.2v-23.9zm-.8-24.4h-15.6v21.6h15.6v-21.6zm-.2-25.2h-15v20.8h15v-20.8zm-.2-24H1309v20h14.4v-20zm-.3-25.2h-13.9v19.3h13.9v-19.3zm-.2-22.8h-13.3V693h13.3v-18.5zm-.3-22.1h-12.7v17.7h12.7v-17.7zm-.2-22.1h-12.2v16.9h12.2v-16.9zm-.3-22.1h-11.6v16.1h11.6v-16.1zm-.2-20.9h-11.1v15.4h11.1v-15.4zm-.2-21h-10.5v14.6h10.5v-14.6zm-.3-19.1h-9.9V561h9.9v-13.8zm-.2-17.2h-9.4v13h9.4v-13zm-.3-17.1h-8.8v12.2h8.8v-12.2zm-.2-17.2h-8.2v11.4h8.2v-11.4zm-.3-17.1h-7.7v10.7h7.7v-10.7zm-.3-17.2h-7.1v9.9h7.1v-9.9zm-.2-17.1h-6.6v9.1h6.6v-9.1zm-.3-17.2h-6v8.3h6v-8.3zm-.2-17.1h-5.4v7.5h5.4V410zm-.3-17.2h-4.9v6.8h4.9v-6.8zm-.2-12.3h-4.3v6h4.3v-6zm-.3-12.2h-3.7v5.2h3.7v-5.2zm25.5 427.8h-17.2V820h17.2v-23.9zm-.9-24.4h-15.6v21.6h15.6v-21.6zm-.2-25.2h-15v20.8h15v-20.8zm-.2-24h-14.4v20h14.4v-20zm-.3-25.1h-13.9v19.3h13.9v-19.3zm-.2-22.9H1329V693h13.3v-18.5zm-.3-22.1h-12.7v17.7h12.7v-17.7zm21.5 143.8h-17.2v23.9h17.2v-23.9zm-.8-24.4h-15.6v21.6h15.6v-21.6zm-.3-25.2h-15v20.8h15v-20.8zm-.2-24h-14.4v20h14.4v-20zm-.2-25.2h-13.9v19.3h13.9v-19.3zm-.3-22.9h-13.3V693h13.3v-18.5zm-.2-22h-12.7v17.7h12.7v-17.7zm-.3-22.1H1349v16.9h12.2v-16.9zm-.2-22.1h-11.6v16.1h11.6v-16.1zm-.3-21h-11.1v15.4h11.1v-15.4zm-.2-20.9H1350V581h10.5v-14.6zm-.3-19.1h-9.9v13.8h9.9v-13.8zm22.7 248.9h-17.2v23.9h17.2v-23.9zm-.8-24.4h-15.6v21.6h15.6v-21.6zm-.3-25.2h-15v20.8h15v-20.8zm-.2-24h-14.4v20h14.4v-20zm-.2-25.2h-13.9v19.3h13.9v-19.3zm-.3-22.8h-13.3v18.5h13.3v-18.5zm-.2-22.1h-12.7v17.7h12.7v-17.7zm-.3-22.1h-12.2v16.9h12.2v-16.9zm-.2-22.1h-11.6v16.1h11.6v-16.1zm-.3-20.9H1369v15.4h11.1v-15.4zm-.2-21h-10.5V581h10.5v-14.6zm-.2-19.1h-9.9v13.8h9.9v-13.8zm-.3-17.2h-9.4v13h9.4v-13zm-.3-17.1h-8.8v12.2h8.8V513zm-.2-17.2h-8.2v11.4h8.2v-11.4zm-.3-17.1h-7.7v10.7h7.7v-10.7zm-.2-17.2h-7.1v9.9h7.1v-9.9zm-.3-17.1h-6.6v9.1h6.6v-9.1zm-.2-17.2h-6v8.3h6v-8.3zm-.3-17.1h-5.4v7.5h5.4v-7.5zm-.2-17.2h-4.9v6.8h4.9v-6.8zm24.9 403.3h-17.2v23.9h17.2v-23.9zm-.8-24.4h-15.6v21.6h15.6v-21.6zm-.2-25.2h-15v20.8h15v-20.8zm-.3-24h-14.4v20h14.4v-20zm-.2-25.1h-13.9v19.3h13.9v-19.3zm-.3-22.9h-13.3v18.5h13.3v-18.5zm-.2-22.1h-12.7v17.7h12.7v-17.7zm-.3-22.1h-12.2v16.9h12.2v-16.9zm-.2-22.1h-11.6v16.1h11.6v-16.1zm-.2-20.9h-11.1v15.4h11.1v-15.4zm-.3-20.9h-10.5v14.6h10.5v-14.6zm-.2-19.2h-9.9v13.8h9.9v-13.8zm-.3-17.1h-9.4v13h9.4v-13zm22.9 266.1h-17.2v23.9h17.2v-23.9zm-.8-24.4h-15.6v21.6h15.6v-21.6zm-.2-25.2h-15v20.8h15v-20.8zm-.3-24H1406v20h14.4v-20zm-.2-25.2h-13.9v19.3h13.9v-19.3zm-.3-22.9h-13.3v18.5h13.3v-18.5zm-.2-22H1407v17.7h12.7v-17.7zm-.2-22.1h-12.2v16.9h12.2v-16.9zm-.3-22.1h-11.6v16.1h11.6v-16.1zm-.2-21h-11.1v15.4h11.1v-15.4zm-.3-20.9h-10.5v14.6h10.5v-14.6zm-.2-19.1h-9.9v13.8h9.9v-13.8zm-.3-17.2h-9.4v13h9.4v-13zm-.2-17.1h-8.8v12.2h8.8v-12.2zm-.3-17.2h-8.2v11.4h8.2v-11.4zm-.2-17.1h-7.7v10.7h7.7v-10.7zm-.3-17.2h-7.1v9.9h7.1v-9.9zm-.2-17.2h-6.6v9.1h6.6v-9.1zm24.1 351.9h-17.2v23.9h17.2v-23.9zm-.8-24.4h-15.6v21.6h15.6v-21.6zm-.2-25.2h-15v20.8h15v-20.8zm-.3-24h-14.4v20h14.4v-20zm-.2-25.2h-13.9v19.3h13.9v-19.3zm-.2-22.8h-13.3v18.5h13.3v-18.5zm-.3-22.1h-12.7v17.7h12.7v-17.7zm-.2-22.1h-12.2v16.9h12.2v-16.9zm-.3-22.1H1427v16.1h11.6v-16.1zm-.2-20.9h-11.1v15.4h11.1v-15.4zm-.3-21h-10.5v14.6h10.5v-14.6zm-.2-19.1h-9.9v13.8h9.9v-13.8zm-.3-17.2h-9.4v13h9.4v-13zm-.2-17.1h-8.8v12.2h8.8v-12.2zm-.3-17.2h-8.2v11.4h8.2v-11.4zm-.2-17.1h-7.7v10.7h7.7v-10.7zm-.3-17.2h-7.1v9.9h7.1v-9.9zm-.2-17.1h-6.6v9.1h6.6v-9.1zm-.3-17.2h-6v8.3h6v-8.3zm-.2-17.1h-5.4v7.5h5.4v-7.5zm-.3-17.2h-4.9v6.8h4.9V393zm24.9 403.3h-17.2v23.9h17.2v-23.9zm-.8-24.4h-15.6v21.6h15.6v-21.6zm-.2-25.2h-15v20.8h15v-20.8zm-.2-24h-14.4v20h14.4v-20zm-.3-25.1h-13.9v19.3h13.9v-19.3zm-.2-22.9h-13.3v18.5h13.3v-18.5zm-.3-22.1h-12.7v17.7h12.7v-17.7zm-.2-22.1h-12.2v16.9h12.2v-16.9zm-.2-22.1h-11.6v16.1h11.6v-16.1zm-.3-20.9h-11.1v15.4h11.1v-15.4zm-.2-20.9h-10.5v14.6h10.5v-14.6zm-.3-19.2h-9.9v13.8h9.9v-13.8zm-.2-17.1h-9.4v13h9.4v-13zm-.3-17.2h-8.8v12.2h8.8v-12.2zm-.2-17.1h-8.2v11.4h8.2V496zm-.3-17.2h-7.7v10.7h7.7v-10.7zm-.2-17.1h-7.1v9.9h7.1v-9.9zm-.3-17.2h-6.6v9.1h6.6v-9.1zm-.3-17.1h-6v8.3h6v-8.3zm-.2-17.2h-5.4v7.5h5.4v-7.5zm-.3-17.1h-4.9v6.8h4.9v-6.8zm-.2-12.3h-4.3v6h4.3v-6zm-.3-12.2h-3.7v5.2h3.7v-5.2zm-.2-10.1h-3.2v4.4h3.2v-4.4zm-.3-8.1h-2.6v3.6h2.6v-3.6zm26 446h-17.2v23.9h17.2v-23.9zm-.8-24.4h-15.6v21.6h15.6V772zm-.3-25.2h-15v20.8h15v-20.8zm-.2-24h-14.4v20h14.4v-20zm-.3-25.2h-13.9v19.3h13.9v-19.3zm-.2-22.9h-13.3v18.5h13.3v-18.5zm-.2-22h-12.7v17.7h12.7v-17.7zm-.3-22.1h-12.2v16.9h12.2v-16.9zm-.2-22.1h-11.6v16.1h11.6v-16.1zm-.3-21h-11.1v15.4h11.1v-15.4zm-.2-20.9h-10.5v14.6h10.5v-14.6zm-.3-19.1h-9.9v13.8h9.9v-13.8zm-.2-17.2h-9.4v13h9.4v-13zm-.3-17.1h-8.8v12.2h8.8v-12.2zm-.2-17.2h-8.2v11.4h8.2V496zm-.3-17.1h-7.7v10.7h7.7v-10.7zm-.2-17.2h-7.1v9.9h7.1v-9.9zm-.3-17.2h-6.6v9.1h6.6v-9.1zm-.2-17.1h-6v8.3h6v-8.3zm24.4 369h-17.2v23.9h17.2v-23.9zm-.8-24.4H1483v21.6h15.6V772zm-.3-25.2h-15v20.8h15v-20.8zm-.2-24h-14.4v20h14.4v-20zm-.2-25.2H1484v19.3h13.9v-19.3zm-.3-22.8h-13.3v18.5h13.3v-18.5zm-.2-22.1h-12.7v17.7h12.7v-17.7zm-.3-22.1h-12.2v16.9h12.2v-16.9zm-.2-22.1h-11.6v16.1h11.6v-16.1zm-.3-20.9h-11.1V603h11.1v-15.4zm-.2-21h-10.5v14.6h10.5v-14.6zm-.3-19.1h-9.9v13.8h9.9v-13.8zm-.2-17.2h-9.4v13h9.4v-13zm-.3-17.1h-8.8v12.2h8.8v-12.2zm-.2-17.2h-8.2v11.4h8.2V496zm23.4 300.4h-17.2v23.9h17.2v-23.9zm-.8-24.4h-15.6v21.6h15.6V772zm-.3-25.2h-15v20.8h15v-20.8zm-.2-24h-14.4v20h14.4v-20zm-.2-25.1h-13.9V717h13.9v-19.3zm-.3-22.9h-13.3v18.5h13.3v-18.5zm-.2-22.1h-12.7v17.7h12.7v-17.7zm-.3-22.1h-12.2v16.9h12.2v-16.9zm-.2-22.1h-11.6v16.1h11.6v-16.1zm-.3-20.9h-11.1V603h11.1v-15.4zm-.2-20.9h-10.5v14.6h10.5v-14.6zm-.2-19.2h-9.9v13.8h9.9v-13.8zm-.3-17.1h-9.4v13h9.4v-13zm-.2-17.2h-8.8v12.2h8.8v-12.2zm-.3-17.1h-8.2v11.4h8.2v-11.4zm-.3-17.2h-7.7v10.7h7.7v-10.7zm-.2-17.1h-7.1v9.9h7.1v-9.9zm-.3-17.2h-6.6v9.1h6.6v-9.1zm-.2-17.1h-6v8.3h6v-8.3zm-.3-17.2h-5.4v7.5h5.4v-7.5zm24.7 386.2H1521v23.9h17.2v-23.9zm-.8-24.4h-15.6v21.6h15.6v-21.6zm-.2-25.2h-15v20.8h15v-20.8zm-.3-24h-14.4v20h14.4v-20zm-.2-25.2h-13.9V717h13.9v-19.3zm-.3-22.9h-13.3v18.5h13.3v-18.5zm-.2-22h-12.7v17.7h12.7v-17.7zm-.2-22.1h-12.2v16.9h12.2v-16.9zm-.3-22.1h-11.6v16.1h11.6v-16.1zm-.2-21h-11.1V603h11.1v-15.4zm-.3-20.9h-10.5v14.6h10.5v-14.6zm-.2-19.1h-9.9v13.8h9.9v-13.8zm-.3-17.2h-9.4v13h9.4v-13zm-.2-17.1h-8.8v12.2h8.8v-12.2zm-.3-17.2h-8.2v11.4h8.2v-11.4zm-.2-17.1h-7.7v10.7h7.7V479zm-.3-17.2h-7.1v9.9h7.1v-9.9zm-.2-17.2h-6.6v9.1h6.6v-9.1zm-.3-17.1h-6v8.3h6v-8.3zm-.2-17.2h-5.4v7.5h5.4v-7.5zm-.3-17.1h-4.9v6.8h4.9v-6.8zm-.3-12.3h-4.3v6h4.3v-6zm-.2-12.2h-3.7v5.2h3.7v-5.2zm-.3-10.1h-3.2v4.4h3.2v-4.4zm-.2-8.1h-2.6v3.6h2.6v-3.6zm25.9 446h-17.2v23.9h17.2v-23.9zm-.8-24.4h-15.6v21.6h15.6v-21.6zm-.2-25.2h-15v20.8h15v-20.8zm-.3-24h-14.4v20h14.4v-20zm-.2-25.2h-13.9V717h13.9v-19.3zm-.2-22.8h-13.3v18.5h13.3v-18.5zm-.3-22.1h-12.7v17.7h12.7v-17.7zm-.2-22.1h-12.2v16.9h12.2v-16.9zm-.3-22.1h-11.6v16.1h11.6v-16.1zm-.2-20.9h-11.1v15.4h11.1v-15.4zm-.3-21h-10.5v14.6h10.5v-14.6zm22.4 229.8h-17.2v23.9h17.2v-23.9zm-.8-24.4h-15.6v21.6h15.6v-21.6zm-.2-25.2h-15v20.8h15v-20.8zm-.3-24h-14.4v20h14.4v-20zm-.2-25.1h-13.9v19.3h13.9v-19.3zm-.2-22.9H1562v18.5h13.3v-18.5zm-.3-22.1h-12.7v17.7h12.7v-17.7zm-.2-22.1h-12.2v16.9h12.2v-16.9zm-.3-22.1h-11.6v16.1h11.6v-16.1zm-.2-20.9h-11.1v15.4h11.1v-15.4zm-.3-20.9h-10.5v14.6h10.5v-14.6zm-.2-19.2h-9.9v13.8h9.9v-13.8zm-.3-17.1h-9.4v13h9.4v-13zm-.2-17.2h-8.8v12.2h8.8v-12.2zm23.1 283.3h-17.2v23.9h17.2v-23.9zm-.8-24.4H1580v21.6h15.6v-21.6zm-.2-25.2h-15v20.8h15V747zm-.2-24h-14.4v20h14.4v-20zm-.3-25.2H1581v19.3h13.9v-19.3zm-.2-22.9h-13.3v18.5h13.3v-18.5zm-.3-22h-12.7v17.7h12.7v-17.7zm-.2-22.1H1582v16.9h12.2v-16.9zm-.2-22.1h-11.6v16.1h11.6v-16.1zm-.3-21h-11.1v15.4h11.1v-15.4zm-.2-20.9H1583v14.6h10.5v-14.6zm-.3-19.1h-9.9v13.8h9.9v-13.8zm-.2-17.2h-9.4v13h9.4v-13zm-.3-17.1h-8.8v12.2h8.8v-12.2zm-.2-17.2h-8.2v11.4h8.2v-11.4zm-.3-17.1h-7.7v10.7h7.7v-10.7zm-.2-17.2h-7.1v9.9h7.1v-9.9zm-.3-17.2h-6.6v9.1h6.6v-9.1zm-.2-17.1h-6v8.3h6v-8.3zm-.3-17.2h-5.4v7.5h5.4v-7.5zm-.3-17.1h-4.9v6.8h4.9v-6.8zm25 403.3h-17.2v23.9h17.2v-23.9zm-.8-24.4h-15.6v21.6h15.6v-21.6zm-.3-25.2h-15v20.8h15V747zm-.2-24h-14.4v20h14.4v-20zm-.3-25.2h-13.9v19.3h13.9v-19.3zm-.2-22.8h-13.3v18.5h13.3V675zm-.2-22.1h-12.7v17.7h12.7v-17.7zm-.3-22.1h-12.2v16.9h12.2v-16.9zm-.2-22.1h-11.6v16.1h11.6v-16.1zm-.3-20.9H1602v15.4h11.1v-15.4zm-.2-21h-10.5v14.6h10.5v-14.6zm-.3-19.1h-9.9v13.8h9.9v-13.8zm-.2-17.2h-9.4v13h9.4v-13zm-.3-17.1h-8.8v12.2h8.8v-12.2zm-.2-17.2h-8.2v11.4h8.2v-11.4zm23.4 300.4h-17.2v23.9h17.2v-23.9zm-.8-24.4h-15.6v21.6h15.6v-21.6zm-.3-25.2h-15v20.8h15V747zm-.2-24h-14.4v20h14.4v-20zm-.2-25.1h-13.9v19.3h13.9v-19.3zm-.3-22.9h-13.3v18.5h13.3V675zm-.2-22.1h-12.7v17.7h12.7v-17.7zm-.3-22.1h-12.2v16.9h12.2v-16.9zm-.2-22.1h-11.6v16.1h11.6v-16.1zm-.3-20.9h-11.1v15.4h11.1v-15.4zm-.2-20.9h-10.5v14.6h10.5v-14.6zm-.3-19.2h-9.9v13.8h9.9v-13.8zm-.2-17.1h-9.4v13h9.4v-13zm-.3-17.2h-8.8v12.2h8.8v-12.2zm-.2-17.1h-8.2v11.4h8.2v-11.4zm-.3-17.2h-7.7v10.7h7.7v-10.7zm-.2-17.1h-7.1v9.9h7.1V462zm-.3-17.2h-6.6v9.1h6.6v-9.1zm-.2-17.1h-6v8.3h6v-8.3zm24.4 369h-17.2v23.9h17.2v-23.9zm-.8-24.4h-15.6v21.6h15.6v-21.6zm-.3-25.2h-15v20.8h15v-20.8zm-.2-24H1639v20h14.4v-20zm-.2-25.2h-13.9v19.3h13.9v-19.3zm-.3-22.9h-13.3v18.5h13.3V675zm-.2-22H1640v17.7h12.7V653zm-.3-22.1h-12.2v16.9h12.2v-16.9zm21.7 165.8h-17.2v23.9h17.2v-23.9zm-.8-24.4h-15.6v21.6h15.6v-21.6zm-.2-25.2h-15v20.8h15v-20.8zm-.3-24h-14.4v20h14.4v-20zm-.2-25.2h-13.9v19.3h13.9v-19.3zm-.3-22.8H1659v18.5h13.3v-18.5zm-.2-22.1h-12.7v17.7h12.7V653zm-.2-22.1h-12.2v16.9h12.2v-16.9zm-.3-22.1H1660v16.1h11.6v-16.1zm-.2-20.9h-11.1v15.4h11.1v-15.4zm-.3-21h-10.5v14.6h10.5v-14.6zm-.2-19.1h-9.9v13.8h9.9v-13.8zm-.3-17.2h-9.4v13h9.4v-13zm-.2-17.1h-8.8v12.2h8.8v-12.2zm-.3-17.2h-8.2v11.4h8.2v-11.4zm-.2-17.1h-7.7v10.7h7.7v-10.7zm-.3-17.2h-7.1v9.9h7.1V462zm-.2-17.1h-6.6v9.1h6.6v-9.1zm-.3-17.2h-6v8.3h6v-8.3zm-.2-17.1h-5.4v7.5h5.4v-7.5zm24.6 386.1h-17.2v23.9h17.2v-23.9zm-.8-24.4h-15.6v21.6h15.6v-21.6zm-.2-25.2h-15v20.8h15v-20.8zm-.3-24h-14.4v20h14.4v-20zm-.2-25.1h-13.9v19.3h13.9V698zm-.2-22.9h-13.3v18.5h13.3v-18.5zm-.3-22.1h-12.7v17.7h12.7V653zm-.2-22.1h-12.2v16.9h12.2v-16.9zm-.3-22.1h-11.6v16.1h11.6v-16.1zm-.2-20.9h-11.1v15.4h11.1v-15.4zm-.3-20.9H1680v14.6h10.5V567zm-.2-19.2h-9.9v13.8h9.9v-13.8zm-.3-17.1h-9.4v13h9.4v-13zm-.2-17.2h-8.8v12.2h8.8v-12.2zm-.3-17.1h-8.2v11.4h8.2v-11.4zm-.2-17.2h-7.7v10.7h7.7v-10.7zm-.3-17.1h-7.1v9.9h7.1v-9.9zm-.2-17.2h-6.6v9.1h6.6v-9.1zm-.3-17.1h-6v8.3h6v-8.3zm-.2-17.2h-5.4v7.5h5.4v-7.5zm-.3-17.1h-4.9v6.8h4.9v-6.8zm-.2-12.3h-4.3v6h4.3v-6zm-.3-12.2h-3.7v5.2h3.7V369zm-.3-10.1h-3.2v4.4h3.2v-4.4zm-.2-8.1h-2.6v3.6h2.6v-3.6zm25.9 446h-17.2v23.9h17.2v-23.9zm-.8-24.4h-15.6V794h15.6v-21.6zm-.2-25.2h-15V768h15v-20.8zm-.2-24h-14.4v20h14.4v-20zm-.3-25.2h-13.9v19.3h13.9V698zm-.2-22.9h-13.3v18.5h13.3v-18.5zm-.3-22h-12.7v17.7h12.7v-17.7zm-.2-22.1h-12.2v16.9h12.2V631zm-.3-22.1h-11.6V625h11.6v-16.1zm-.2-21h-11.1v15.4h11.1v-15.4zm-.2-20.9h-10.5v14.6h10.5V567zm-.3-19.1h-9.9v13.8h9.9v-13.8zm-.2-17.2h-9.4v13h9.4v-13zm-.3-17.1h-8.8v12.2h8.8v-12.2zm-.3-17.2h-8.2v11.4h8.2v-11.4zm-.2-17.1h-7.7V490h7.7v-10.7zm-.3-17.2h-7.1v9.9h7.1v-9.9zm-.2-17.2h-6.6v9.1h6.6v-9.1zm-.3-17.1h-6v8.3h6v-8.3zm-.2-17.2h-5.4v7.5h5.4v-7.5zm-.3-17.1h-4.9v6.8h4.9v-6.8zm-.2-12.3h-4.3v6h4.3v-6zm-.3-12.2h-3.7v5.2h3.7V369zm-.2-10.1h-3.2v4.4h3.2v-4.4zm-.3-8.1h-2.6v3.6h2.6v-3.6z"/></svg>