<?xml version="1.0" encoding="utf-8"?>
<!-- Generator: Adobe Illustrator 19.0.0, SVG Export Plug-In . SVG Version: 6.00 Build 0)  -->
<svg version="1.1" id="Layer_1" xmlns="http://www.w3.org/2000/svg" xmlns:xlink="http://www.w3.org/1999/xlink" x="0px" y="0px"
	 viewBox="-664 730 140.9 41" style="enable-background:new -664 730 140.9 41;" xml:space="preserve">
<style type="text/css">
	.st0{fill:none;stroke:url(#XMLID_2_);stroke-width:3.8885;stroke-linecap:round;stroke-linejoin:round;stroke-miterlimit:10;}
	.st1{fill:none;stroke:url(#XMLID_3_);stroke-width:3.8885;stroke-linecap:round;stroke-linejoin:round;stroke-miterlimit:10;}
	.st2{fill:none;stroke:url(#XMLID_4_);stroke-width:3.8885;stroke-linecap:round;stroke-linejoin:round;stroke-miterlimit:10;}
	.st3{fill:none;stroke:url(#XMLID_5_);stroke-width:3.8885;stroke-linecap:round;stroke-linejoin:round;stroke-miterlimit:10;}
	.st4{fill:none;stroke:url(#XMLID_6_);stroke-width:3.8885;stroke-linecap:round;stroke-linejoin:round;stroke-miterlimit:10;}
	.st5{fill:none;stroke:url(#XMLID_7_);stroke-width:3.8885;stroke-linecap:round;stroke-linejoin:round;stroke-miterlimit:10;}
	.st6{fill:none;stroke:url(#XMLID_8_);stroke-width:3.8885;stroke-linecap:round;stroke-linejoin:round;stroke-miterlimit:10;}
	.st7{fill:none;stroke:url(#XMLID_9_);stroke-width:3.8885;stroke-linecap:round;stroke-linejoin:round;stroke-miterlimit:10;}
	.st8{fill:none;stroke:url(#XMLID_10_);stroke-width:3.8885;stroke-linecap:round;stroke-linejoin:round;stroke-miterlimit:10;}
	.st9{fill:none;stroke:url(#XMLID_11_);stroke-width:3.8885;stroke-linecap:round;stroke-linejoin:round;stroke-miterlimit:10;}
	.st10{fill:none;stroke:url(#XMLID_12_);stroke-width:3.8885;stroke-linecap:round;stroke-linejoin:round;stroke-miterlimit:10;}
	.st11{fill:none;stroke:url(#XMLID_13_);stroke-width:3.8885;stroke-linecap:round;stroke-linejoin:round;stroke-miterlimit:10;}
	.st12{fill:none;stroke:url(#XMLID_14_);stroke-width:3.8885;stroke-linecap:round;stroke-linejoin:round;stroke-miterlimit:10;}
	.st13{fill:none;stroke:url(#XMLID_15_);stroke-width:3.8885;stroke-linecap:round;stroke-linejoin:round;stroke-miterlimit:10;}
	.st14{fill:none;stroke:url(#XMLID_16_);stroke-width:3.8885;stroke-linecap:round;stroke-linejoin:round;stroke-miterlimit:10;}
	.st15{fill:none;stroke:url(#XMLID_17_);stroke-width:3.8885;stroke-linecap:round;stroke-linejoin:round;stroke-miterlimit:10;}
	.st16{fill:none;stroke:url(#XMLID_18_);stroke-width:3.8885;stroke-linecap:round;stroke-linejoin:round;stroke-miterlimit:10;}
	.st17{fill:none;stroke:url(#XMLID_19_);stroke-width:3.8885;stroke-linecap:round;stroke-linejoin:round;stroke-miterlimit:10;}
	.st18{fill:none;stroke:url(#XMLID_20_);stroke-width:3.8885;stroke-linecap:round;stroke-linejoin:round;stroke-miterlimit:10;}
	.st19{fill:#2189DC;}
	.st20{fill:url(#SVGID_1_);}
	.st21{fill:#DB2346;}
</style>
<g id="icomoon-ignore">
</g>
<g id="XMLID_423_">
	<g id="XMLID_424_">
		<g id="XMLID_449_">
			
				<linearGradient id="XMLID_2_" gradientUnits="userSpaceOnUse" x1="-660.95" y1="-699.369" x2="-660.95" y2="-685.382" gradientTransform="matrix(1 0 0 -1 0 70.8)">
				<stop  offset="0" style="stop-color:#C52762"/>
				<stop  offset="1" style="stop-color:#CB5933"/>
			</linearGradient>
			<line id="XMLID_452_" class="st0" x1="-661" y1="758.1" x2="-661" y2="768.2"/>
			
				<linearGradient id="XMLID_3_" gradientUnits="userSpaceOnUse" x1="-660.95" y1="-682.5521" x2="-660.95" y2="-671.9377" gradientTransform="matrix(1 0 0 -1 0 70.8)">
				<stop  offset="0" style="stop-color:#DC932D"/>
				<stop  offset="1" style="stop-color:#EABD30"/>
			</linearGradient>
			<line id="XMLID_451_" class="st1" x1="-661" y1="744.6" x2="-661" y2="751.4"/>
			
				<linearGradient id="XMLID_4_" gradientUnits="userSpaceOnUse" x1="-660.95" y1="-669.0993" x2="-660.95" y2="-663.5295" gradientTransform="matrix(1 0 0 -1 0 70.8)">
				<stop  offset="0" style="stop-color:#48549A"/>
				<stop  offset="1" style="stop-color:#539385"/>
			</linearGradient>
			<line id="XMLID_450_" class="st2" x1="-661" y1="736.3" x2="-661" y2="737.9"/>
		</g>
		<g id="XMLID_446_">
			
				<linearGradient id="XMLID_5_" gradientUnits="userSpaceOnUse" x1="-654.8326" y1="-699.369" x2="-654.8326" y2="-682.0274" gradientTransform="matrix(1 0 0 -1 0 70.8)">
				<stop  offset="0" style="stop-color:#C52762"/>
				<stop  offset="1" style="stop-color:#CB5933"/>
			</linearGradient>
			<line id="XMLID_448_" class="st3" x1="-654.8" y1="754.7" x2="-654.8" y2="768.2"/>
			
				<linearGradient id="XMLID_6_" gradientUnits="userSpaceOnUse" x1="-654.8326" y1="-679.1918" x2="-654.8326" y2="-661.8505" gradientTransform="matrix(1 0 0 -1 0 70.8)">
				<stop  offset="0" style="stop-color:#DC932D"/>
				<stop  offset="1" style="stop-color:#EABD30"/>
			</linearGradient>
			<line id="XMLID_447_" class="st4" x1="-654.8" y1="734.6" x2="-654.8" y2="748"/>
		</g>
		<g id="XMLID_441_">
			
				<linearGradient id="XMLID_7_" gradientUnits="userSpaceOnUse" x1="-648.6182" y1="-699.3887" x2="-648.6182" y2="-675.3033" gradientTransform="matrix(1 0 0 -1 0 70.8)">
				<stop  offset="0" style="stop-color:#C52762"/>
				<stop  offset="1" style="stop-color:#CB5933"/>
			</linearGradient>
			<line id="XMLID_445_" class="st5" x1="-648.6" y1="748" x2="-648.6" y2="768.2"/>
			
				<linearGradient id="XMLID_8_" gradientUnits="userSpaceOnUse" x1="-648.6182" y1="-672.4623" x2="-648.6182" y2="-661.8478" gradientTransform="matrix(1 0 0 -1 0 70.8)">
				<stop  offset="0" style="stop-color:#DC932D"/>
				<stop  offset="1" style="stop-color:#EABD30"/>
			</linearGradient>
			<line id="XMLID_444_" class="st6" x1="-648.6" y1="734.6" x2="-648.6" y2="741.3"/>
			
				<linearGradient id="XMLID_9_" gradientUnits="userSpaceOnUse" x1="-648.6182" y1="-657.0507" x2="-648.6182" y2="-657.0507" gradientTransform="matrix(1 0 0 -1 0 70.8)">
				<stop  offset="0" style="stop-color:#48549A"/>
				<stop  offset="1" style="stop-color:#539385"/>
			</linearGradient>
			<path id="XMLID_443_" class="st7" d="M-648.6,727.9"/>
			
				<linearGradient id="XMLID_10_" gradientUnits="userSpaceOnUse" x1="-648.6182" y1="-655.4" x2="-648.6182" y2="-655.4" gradientTransform="matrix(1 0 0 -1 0 70.8)">
				<stop  offset="0" style="stop-color:#48549A"/>
				<stop  offset="1" style="stop-color:#539385"/>
			</linearGradient>
			<path id="XMLID_442_" class="st8" d="M-648.6,726.2"/>
		</g>
		<g id="XMLID_438_">
			
				<linearGradient id="XMLID_11_" gradientUnits="userSpaceOnUse" x1="-642.5009" y1="-699.369" x2="-642.5009" y2="-682.0274" gradientTransform="matrix(1 0 0 -1 0 70.8)">
				<stop  offset="0" style="stop-color:#C52762"/>
				<stop  offset="1" style="stop-color:#CB5933"/>
			</linearGradient>
			<line id="XMLID_440_" class="st9" x1="-642.5" y1="754.7" x2="-642.5" y2="768.2"/>
			
				<linearGradient id="XMLID_12_" gradientUnits="userSpaceOnUse" x1="-642.5009" y1="-679.1918" x2="-642.5009" y2="-671.9406" gradientTransform="matrix(1 0 0 -1 0 70.8)">
				<stop  offset="0" style="stop-color:#DC932D"/>
				<stop  offset="1" style="stop-color:#EABD30"/>
			</linearGradient>
			<line id="XMLID_439_" class="st10" x1="-642.5" y1="744.6" x2="-642.5" y2="748"/>
		</g>
		<g id="XMLID_432_">
			
				<linearGradient id="XMLID_13_" gradientUnits="userSpaceOnUse" x1="-636.3835" y1="-699.369" x2="-636.3835" y2="-685.382" gradientTransform="matrix(1 0 0 -1 0 70.8)">
				<stop  offset="0" style="stop-color:#C52762"/>
				<stop  offset="1" style="stop-color:#CB5933"/>
			</linearGradient>
			<line id="XMLID_437_" class="st11" x1="-636.4" y1="758.1" x2="-636.4" y2="768.2"/>
			
				<linearGradient id="XMLID_14_" gradientUnits="userSpaceOnUse" x1="-636.3835" y1="-682.5519" x2="-636.3835" y2="-675.3005" gradientTransform="matrix(1 0 0 -1 0 70.8)">
				<stop  offset="0" style="stop-color:#DC932D"/>
				<stop  offset="1" style="stop-color:#EABD30"/>
			</linearGradient>
			<line id="XMLID_436_" class="st12" x1="-636.4" y1="748" x2="-636.4" y2="751.4"/>
			
				<linearGradient id="XMLID_15_" gradientUnits="userSpaceOnUse" x1="-636.3835" y1="-672.4617" x2="-636.3835" y2="-668.5732" gradientTransform="matrix(1 0 0 -1 0 70.8)">
				<stop  offset="0" style="stop-color:#48549A"/>
				<stop  offset="1" style="stop-color:#539385"/>
			</linearGradient>
			<line id="XMLID_434_" class="st13" x1="-636.4" y1="741.3" x2="-636.4" y2="741.3"/>
		</g>
		<g id="XMLID_428_">
			
				<linearGradient id="XMLID_16_" gradientUnits="userSpaceOnUse" x1="-630.1691" y1="-699.369" x2="-630.1691" y2="-685.382" gradientTransform="matrix(1 0 0 -1 0 70.8)">
				<stop  offset="0" style="stop-color:#C52762"/>
				<stop  offset="1" style="stop-color:#CB5933"/>
			</linearGradient>
			<line id="XMLID_431_" class="st14" x1="-630.2" y1="758.1" x2="-630.2" y2="768.2"/>
			
				<linearGradient id="XMLID_17_" gradientUnits="userSpaceOnUse" x1="-630.1691" y1="-682.5521" x2="-630.1691" y2="-671.9377" gradientTransform="matrix(1 0 0 -1 0 70.8)">
				<stop  offset="0" style="stop-color:#DC932D"/>
				<stop  offset="1" style="stop-color:#EABD30"/>
			</linearGradient>
			<line id="XMLID_430_" class="st15" x1="-630.2" y1="744.6" x2="-630.2" y2="751.4"/>
			
				<linearGradient id="XMLID_18_" gradientUnits="userSpaceOnUse" x1="-630.1691" y1="-669.0993" x2="-630.1691" y2="-663.5295" gradientTransform="matrix(1 0 0 -1 0 70.8)">
				<stop  offset="0" style="stop-color:#48549A"/>
				<stop  offset="1" style="stop-color:#539385"/>
			</linearGradient>
			<line id="XMLID_429_" class="st16" x1="-630.2" y1="736.3" x2="-630.2" y2="737.9"/>
		</g>
		<g id="XMLID_425_">
			
				<linearGradient id="XMLID_19_" gradientUnits="userSpaceOnUse" x1="-623.5663" y1="-698.4177" x2="-623.5663" y2="-660.8961" gradientTransform="matrix(1 0 0 -1 0 70.8)">
				<stop  offset="0" style="stop-color:#C52762"/>
				<stop  offset="1" style="stop-color:#CB5933"/>
			</linearGradient>
			<line id="XMLID_427_" class="st17" x1="-623.6" y1="733.6" x2="-623.6" y2="767.3"/>
			
				<linearGradient id="XMLID_20_" gradientUnits="userSpaceOnUse" x1="-617.7402" y1="-658.0217" x2="-617.7402" y2="-658.0217" gradientTransform="matrix(1 0 0 -1 0 70.8)">
				<stop  offset="0" style="stop-color:#48549A"/>
				<stop  offset="1" style="stop-color:#539385"/>
			</linearGradient>
			<path id="XMLID_426_" class="st18" d="M-617.7,728.8"/>
		</g>
	</g>
</g>
<g>
	<g>
		<path class="st19" d="M-597.5,759.7h-2.9c-0.3-0.6-0.5-1.4-0.7-2.5c-0.2-1.1-0.2-2.3-0.2-3.5c0-2.2-0.2-3.7-0.7-4.4
			c-0.8-1.3-2.3-1.9-4.8-1.9h-8.4v12.4h-2.6v-27.4h10.7c3,0,5.3,0.5,6.8,1.6c1.7,1.2,2.5,3.1,2.5,5.6c0,1.8-0.4,3.3-1.1,4.3
			c-0.7,0.9-1.8,1.7-3.3,2.4c1.3,0.5,2.2,1.2,2.7,2.4c0.5,1.1,0.8,2.8,0.8,4.9c0,1.6,0.1,2.9,0.2,4c0.2,1,0.5,1.7,0.9,2V759.7z
			 M-600.3,739.6c0-1.5-0.4-2.7-1.3-3.5c-1.1-1-2.9-1.6-5.3-1.6h-8.3v10.5h8.2c2.1,0,3.7-0.5,4.9-1.4
			C-600.9,742.7-600.3,741.4-600.3,739.6z"/>
		<path class="st19" d="M-570.7,759.7l-2.6,0l-3.2-8.6H-589l-3.2,8.6l-2.7,0l10.8-27.4h2.9L-570.7,759.7z M-577.4,748.9l-5.4-14.4
			l-5.4,14.4H-577.4z"/>
		<path class="st19" d="M-546.8,759.7h-2.8c-0.3-0.6-0.5-1.4-0.7-2.5c-0.2-1.1-0.2-2.3-0.2-3.5c0-2.2-0.2-3.7-0.7-4.4
			c-0.8-1.3-2.3-1.9-4.8-1.9h-8.4v12.4h-2.6v-27.4h10.7c3,0,5.3,0.5,6.8,1.6c1.7,1.2,2.5,3.1,2.5,5.6c0,1.8-0.4,3.3-1.1,4.3
			c-0.7,0.9-1.8,1.7-3.3,2.4c1.3,0.5,2.2,1.2,2.7,2.4c0.5,1.1,0.8,2.8,0.8,4.9c0,1.6,0.1,2.9,0.2,4c0.2,1,0.5,1.7,0.9,2V759.7z
			 M-549.6,739.6c0-1.5-0.4-2.7-1.3-3.5c-1.1-1-2.9-1.6-5.3-1.6h-8.3v10.5h8.2c2.1,0,3.7-0.5,4.9-1.4
			C-550.2,742.7-549.6,741.4-549.6,739.6z"/>
		<path class="st19" d="M-523.1,759.7h-18.6v-27.4h18.2v2.2h-15.6v9.9h14.1v2.2h-14.1v10.9h16V759.7z"/>
	</g>
	
		<radialGradient id="SVGID_1_" cx="-560.7609" cy="766.9037" r="40.499" gradientTransform="matrix(0.8267 0 0 1 -106.8276 0)" gradientUnits="userSpaceOnUse">
		<stop  offset="0.5025" style="stop-color:#FFFFFF"/>
		<stop  offset="1" style="stop-color:#2189DC"/>
	</radialGradient>
	<rect x="-617.7" y="765.2" class="st20" width="94.7" height="3.3"/>
	<g>
		<path class="st21" d="M-580.1,765.6c0-0.2-0.1-0.3-0.2-0.4s-0.2-0.2-0.3-0.3s-0.2-0.2-0.4-0.2c-0.1,0-0.3-0.1-0.4-0.1
			c-0.3,0-0.5,0.1-0.7,0.2c-0.2,0.1-0.4,0.3-0.5,0.4s-0.2,0.4-0.3,0.6c-0.1,0.2-0.1,0.5-0.1,0.7c0,0.2,0,0.5,0.1,0.7
			c0.1,0.2,0.2,0.4,0.3,0.6s0.3,0.3,0.5,0.4c0.2,0.1,0.4,0.2,0.7,0.2c0.2,0,0.4,0,0.5-0.1c0.2-0.1,0.3-0.2,0.4-0.3s0.2-0.3,0.3-0.4
			c0.1-0.2,0.1-0.3,0.1-0.5h0.4c0,0.3-0.1,0.5-0.2,0.7c-0.1,0.2-0.2,0.4-0.4,0.5c-0.2,0.2-0.3,0.3-0.5,0.3c-0.2,0.1-0.4,0.1-0.7,0.1
			c-0.3,0-0.6-0.1-0.9-0.2s-0.5-0.3-0.6-0.5s-0.3-0.4-0.4-0.7c-0.1-0.3-0.1-0.6-0.1-0.8s0-0.6,0.1-0.8c0.1-0.3,0.2-0.5,0.4-0.7
			c0.2-0.2,0.4-0.4,0.6-0.5s0.5-0.2,0.9-0.2c0.2,0,0.4,0,0.6,0.1c0.2,0.1,0.4,0.1,0.5,0.3s0.3,0.3,0.4,0.4c0.1,0.2,0.2,0.4,0.2,0.6
			H-580.1z"/>
		<path class="st21" d="M-577.3,764.3h0.4v3.9h2.4v0.3h-2.8V764.3z"/>
		<path class="st21" d="M-572.4,764.3h0.4v4.3h-0.4V764.3z"/>
		<path class="st21" d="M-569.4,764.3h3v0.3h-2.5v1.5h2.4v0.3h-2.4v1.7h2.6v0.3h-3V764.3z"/>
		<path class="st21" d="M-564.2,764.3h0.5l2.5,3.6h0v-3.6h0.4v4.3h-0.5l-2.5-3.6h0v3.6h-0.4V764.3z"/>
		<path class="st21" d="M-558.8,764.3h3.4v0.3h-1.5v3.9h-0.4v-3.9h-1.5V764.3z"/>
	</g>
</g>
</svg>
